<?xml version="1.0" encoding="utf-8" ?>
<svg baseProfile="full" height="200mm" version="1.1" viewBox="0,0,200,200" width="200mm" xmlns="http://www.w3.org/2000/svg" xmlns:ev="http://www.w3.org/2001/xml-events" xmlns:xlink="http://www.w3.org/1999/xlink"><defs /><rect fill="#1a1a1a" height="200" width="200" x="0" y="0" /><text alignment-baseline="middle" fill="#e1ed5e" style="dominant-baseline: central; font-size:9.0px; font-family:Arial;" text-anchor="middle" x="100.0" y="100.0">2018</text><line stroke="#e1ed5e" stroke-width="0.3" x1="100.0" x2="100.0" y1="15.0" y2="10.0" /><path d="M 100.0 14.0 a86.0,86.0 0 0,1 42.46469731375804,11.215312516191453" fill="none" id="id1" stroke="none" /><text fill="#e1ed5e" style="font-size:6.75px; font-family:Arial;" text-anchor="middle"><textPath startOffset="22.20632615414155" xlink:href="#id1">January</textPath></text><line stroke="#e1ed5e" stroke-width="0.3" x1="143.23703022742887" x2="145.7803849466894" y1="26.81831364943548" y2="22.513508569990506" /><path d="M 143.74570117128098 25.957352633546492 a86.0,86.0 0 0,1 28.547481713284135,27.462654790039103" fill="none" id="id2" stroke="none" /><text fill="#e1ed5e" style="font-size:6.75px; font-family:Arial;" text-anchor="middle"><textPath startOffset="19.985693538727396" xlink:href="#id2">February</textPath></text><line stroke="#e1ed5e" stroke-width="0.3" x1="172.23445277983987" x2="176.4835382374775" y1="55.19839476539836" y2="52.563006222186495" /><path d="M 173.08426987136738 54.67131705675599 a86.0,86.0 0 0,1 12.851231095245387,41.99856678651699" fill="none" id="id3" stroke="none" /><text fill="#e1ed5e" style="font-size:6.75px; font-family:Arial;" text-anchor="middle"><textPath startOffset="22.20632615414155" xlink:href="#id3">March</textPath></text><line stroke="#e1ed5e" stroke-width="0.3" x1="184.98032266829074" x2="189.97916517819016" y1="98.17113171792111" y2="98.06355123074" /><path d="M 185.9800911702706 98.14961562048488 a86.0,86.0 0 0,1 -9.607161424134198,41.387399972396054" fill="none" id="id4" stroke="none" /><text fill="#e1ed5e" style="font-size:6.75px; font-family:Arial;" text-anchor="middle"><textPath startOffset="21.466115282336823" xlink:href="#id4">April</textPath></text><line stroke="#e1ed5e" stroke-width="0.3" x1="174.80103733775053" x2="179.2010983576182" y1="140.37084112569926" y2="142.7455964860345" /><path d="M 175.68104954172406 140.8457921977663 a86.0,86.0 0 0,1 -30.038265399797805,32.042727171017184" fill="none" id="id5" stroke="none" /><text fill="#e1ed5e" style="font-size:6.75px; font-family:Arial;" text-anchor="middle"><textPath startOffset="22.206326154141568" xlink:href="#id5">May</textPath></text><line stroke="#e1ed5e" stroke-width="0.3" x1="143.8653032363475" x2="146.44561519142675" y1="172.8068346515853" y2="177.08958963109032" /><path d="M 144.38136562736335 173.6633856474863 a86.0,86.0 0 0,1 -40.68145358897372,12.25698825130547" fill="none" id="id6" stroke="none" /><text fill="#e1ed5e" style="font-size:6.75px; font-family:Arial;" text-anchor="middle"><textPath startOffset="21.466115282336833" xlink:href="#id6">June</textPath></text><line stroke="#e1ed5e" stroke-width="0.3" x1="102.19456741930631" x2="102.32365962044197" y1="184.97166512339345" y2="189.96999836594603" /><path d="M 102.22038585953345 185.97133177190398 a86.0,86.0 0 0,1 -42.740103519485714,-10.115201625700543" fill="none" id="id7" stroke="none" /><text fill="#e1ed5e" style="font-size:6.75px; font-family:Arial;" text-anchor="middle"><textPath startOffset="22.20632615414155" xlink:href="#id7">July</textPath></text><line stroke="#e1ed5e" stroke-width="0.3" x1="58.666819895761336" x2="56.23545636021788" y1="174.27360380694188" y2="178.64263932499728" /><path d="M 58.180547188652646 175.14741091055294 a86.0,86.0 0 0,1 -31.652253787137756,-30.449443065178592" fill="none" id="id8" stroke="none" /><text fill="#e1ed5e" style="font-size:6.75px; font-family:Arial;" text-anchor="middle"><textPath startOffset="22.20632615414155" xlink:href="#id8">August</textPath></text><line stroke="#e1ed5e" stroke-width="0.3" x1="26.63291911575756" x2="22.317208475507996" y1="142.92168965132927" y2="145.44649492493687" /><path d="M 25.769776987707644 143.4266507060508 a86.0,86.0 0 0,1 -11.730757126820373,-40.83630448921669" fill="none" id="id9" stroke="none" /><text fill="#e1ed5e" style="font-size:6.75px; font-family:Arial;" text-anchor="middle"><textPath startOffset="21.46611528233685" xlink:href="#id9">September</textPath></text><line stroke="#e1ed5e" stroke-width="0.3" x1="15.007084014347285" x2="10.007500721073583" y1="101.09737516637583" y2="101.16192664675087" /><path d="M 14.007167355692545 101.11028546245083 a86.0,86.0 0 0,1 10.666146001902534,-42.60595125391555" fill="none" id="id10" stroke="none" /><text fill="#e1ed5e" style="font-size:6.75px; font-family:Arial;" text-anchor="middle"><textPath startOffset="22.20632615414155" xlink:href="#id10">October</textPath></text><path d="M 81.6062741919709 89.86733742301443 l -26.48173020925692 -14.588150300035243 a51.2340232858991,51.2340232858991 0 0,0 0.4321769395686999,-0.7687945518939038 l 26.226695628395788 15.041828361863933" fill="#beff1f" stroke="none" /><line stroke="#e1ed5e" stroke-width="0.3" x1="26.266209847984243" x2="21.928928074336255" y1="57.71137044288968" y2="55.22380399835378" /><path d="M 25.398753493254645 57.2138571539825 a86.0,86.0 0 0,1 29.58750427330803,-30.4925239686951" fill="none" id="id11" stroke="none" /><text fill="#e1ed5e" style="font-size:6.75px; font-family:Arial;" text-anchor="middle"><textPath startOffset="21.46611528233685" xlink:href="#id11">November</textPath></text><path d="M 81.96595687620814 89.24020034530311 l -12.166563375236036 -7.259036895115692 a35.167529107373866,35.167529107373866 0 0,0 0.3146391967897699,-0.5171841107159665 l 12.03980838016005 7.467388779038733" fill="#ff5808" stroke="none" /><path d="M 82.7489923806493 88.02491185347247 l -34.644843762328634 -24.049323206557986 a63.1738680465718,63.1738680465718 0 0,0 0.6277899533092646,-0.8879643675659307 l 34.22574118921549 24.642114074455705" fill="#2fff30" stroke="none" /><path d="M 83.17141714833178 87.43820079747577 l -13.42367941311594 -10.020188083151927 a37.75109961190168,37.75109961190168 0 0,0 0.39319398895805735,-0.5173971997874844 l 13.249209483933774 10.24977005882044" fill="#ff800b" stroke="none" /><path d="M 84.07557802195018 86.31012108654704 l -32.71613783097141 -28.1253514908857 a64.1437257438551,64.1437257438551 0 0,0 0.7269870774985169,-0.8310719020041797 l 32.22715888989505 28.68433894909282" fill="#31ff3e" stroke="none" /><path d="M 84.5562425177563 85.77008943001954 l -13.633661197778915 -12.562084052981458 a39.53868046571798,39.53868046571798 0 0,0 0.46548827891875166,-0.4965504407188647 l 13.415405596889705 12.794903910578375" fill="#ff9c0e" stroke="none" /><path d="M 84.80347519578584 85.50635884689758 l -12.426550231233858 -11.851785993371326 a38.17218628719276,38.17218628719276 0 0,0 0.4575858771937279,-0.47158246938230863 l 12.220700090337013 12.063932658303756" fill="#ff870c" stroke="none" /><path d="M 85.83668400450813 84.49514656593479 l -9.53321256462409 -10.436190480910911 a35.13492884864166,35.13492884864166 0 0,0 0.4500433243753302,-0.404053340179424 l 9.352158252652789 10.598742829859612" fill="#ff5808" stroke="none" /><path d="M 86.37877921826538 84.01681056812373 l -5.665229600682639 -6.647600779234435 a29.734152652005175,29.734152652005175 0 0,0 0.392409347733834,-0.3286315436383827 l 5.549962715989695 6.744133480266632" fill="#ff0000" stroke="none" /><path d="M 87.51073957382395 83.11751280151077 l -37.467781278528136 -50.64746159546771 a84.0,84.0 0 0,0 1.1698187345848732,-0.8499230607333286 l 36.59041722758948 51.284903891017706" fill="#4dd2ff" stroke="none" /><path d="M 88.39885842347998 82.49532879139004 l -10.332970214015571 -15.591159284770969 a39.70439844760673,39.70439844760673 0 0,0 0.5729400929059003,-0.37265617379151306 l 10.063063095325381 15.766714382722016" fill="#ff9e0e" stroke="none" /><line stroke="#e1ed5e" stroke-width="0.3" x1="56.76296977257108" x2="54.21961505331056" y1="26.818313649435495" y2="22.513508569990535" /><path d="M 56.25429882871898 25.957352633546506 a86.0,86.0 0 0,1 42.26535254187918,-11.944610805530505" fill="none" id="id12" stroke="none" /><text fill="#e1ed5e" style="font-size:6.75px; font-family:Arial;" text-anchor="middle"><textPath startOffset="22.20632615414155" xlink:href="#id12">December</textPath></text><path d="M 89.94658935756843 81.56283822128135 l -8.663100684247956 -15.88744302820762 a39.095860284605436,39.095860284605436 0 0,0 0.5936147005706566,-0.31708841486588923 l 8.388340937148996 16.03421016957526" fill="#ff950d" stroke="none" /><path d="M 91.23893434514133 80.91482961587045 l -6.788975843803808 -14.789155317068046 a37.27296248382923,37.27296248382923 0 0,0 0.5853947392801883,-0.26264955566794607 l 6.533398986056845 14.90382520325252" fill="#ff790b" stroke="none" /><path d="M 92.23578459929587 80.48803036053334 l -6.290721999302717 -15.808986526776156 a38.01461836998706,38.01461836998706 0 0,0 0.6100745888951503,-0.23669946241390857 l 6.017664245407889 15.914928693080615" fill="#ff840c" stroke="none" /><path d="M 92.57280143429618 80.3572730644239 l -5.4565408350106015 -14.430924484752484 a36.4280724450194,36.4280724450194 0 0,0 0.5884307624470416,-0.21672401578072745 l 5.207327746790992 14.522711768339535" fill="#ff6c09" stroke="none" /><path d="M 93.25333710446033 80.11325718540243 l -4.5550884413740675 -13.426767237954047 a35.17839586028461,35.17839586028461 0 0,0 0.5751117897520106,-0.18960531495047614 l 4.323293829379647 13.503186277163758" fill="#ff5808" stroke="none" /><path d="M 94.28887869178378 79.79150937346287 l -9.118584629496077 -32.265613365164434 a54.529366106080204,54.529366106080204 0 0,0 0.9054526219277444,-0.24749440524380173 l 8.561834118344612 32.41779431123454" fill="#94ff23" stroke="none" /><path d="M 94.98787191387505 79.60689891045804 l -3.2549654582596705 -13.243643915847432 a34.63777490297542,34.63777490297542 0 0,0 0.5802261308185898,-0.13732077881033572 l 3.0265156404785474 13.29771060679864" fill="#ff5007" stroke="none" /><path d="M 96.04723909329186 79.375362276772 l -2.8390334481298316 -14.81345260535083 a36.08305304010349,36.08305304010349 0 0,0 0.6110147479316134,-0.11165903967652287 l 2.583623579095325 14.860127126378089" fill="#ff6709" stroke="none" /><path d="M 96.75951476605007 79.25152402106235 l -4.296472595440198 -27.509848681517717 a48.84333764553687,48.84333764553687 0 0,0 0.8318044114971944,-0.12258634790038024 l 3.822299203514354 27.579729513579064" fill="#deff1b" stroke="none" /><path d="M 97.83486435360386 79.11191278185805 l -1.4836641033583924 -14.313609054915634 a35.39029754204398,35.39029754204398 0 0,0 0.6064799442943709,-0.057592578473576066 l 1.2370590319737849 14.33702717790439" fill="#ff5c08" stroke="none" /><path d="M 98.55514903715128 79.0497635885617 l -0.9727043222075955 -14.10414363326325 a35.13764553686934,35.13764553686934 0 0,0 0.6037617154344526,-0.03642055547672922 l 0.72978055793352 14.118797458120287" fill="#ff5808" stroke="none" /><path d="M 99.27714615592234 79.0124445844662 l -0.9584125547156477 -27.826837704243975 a48.84333764553687,48.84333764553687 0 0,0 0.8405086320609663,-0.021707858224128847 l 0.4792772874598024 27.839212354610464" fill="#deff1b" stroke="none" /></svg>