<?xml version="1.0" encoding="utf-8" ?>
<svg baseProfile="full" height="200mm" version="1.1" viewBox="0,0,200,200" width="200mm" xmlns="http://www.w3.org/2000/svg" xmlns:ev="http://www.w3.org/2001/xml-events" xmlns:xlink="http://www.w3.org/1999/xlink"><defs /><rect fill="#1a1a1a" height="200" width="200" x="0" y="0" /><text alignment-baseline="middle" fill="#e1ed5e" style="dominant-baseline: central; font-size:9.0px; font-family:Arial;" text-anchor="middle" x="100.0" y="100.0">2022</text><line stroke="#e1ed5e" stroke-width="0.3" x1="100.0" x2="100.0" y1="15.0" y2="10.0" /><path d="M 100.0 14.0 a86.0,86.0 0 0,1 42.46469731375804,11.215312516191453" fill="none" id="id49" stroke="none" /><text fill="#e1ed5e" style="font-size:6.75px; font-family:Arial;" text-anchor="middle"><textPath startOffset="22.20632615414155" xlink:href="#id49">January</textPath></text><path d="M 100.36148047927253 79.00311137660856 l 0.826252881413756 -47.99357287761389 a69.00068469702157,69.00068469702157 0 0,0 1.1873814096581274,0.030666558695086023 l -1.6522609262667514 47.97223952677645" fill="#3aff92" stroke="none" /><path d="M 102.16513564639614 79.11191278185805 l 3.1514669827436563 -30.403691939678247 a51.56658678534748,51.56658678534748 0 0,0 0.8821159504596293,0.09911600516028889 l -3.6743496367130106 30.344939981047354" fill="#8fff24" stroke="none" /><path d="M 102.52436894288641 79.15227682838746 l 6.118634753726723 -50.53128382575036 a71.90037658336186,71.90037658336186 0 0,0 1.227391715232123,0.15935067101522385 l -6.987541197466692 50.418474831571" fill="#3effb2" stroke="none" /><path d="M 103.59715602781102 79.31037775812273 l 4.768704961209715 -27.42797461872513 a48.83943854844232,48.83943854844232 0 0,0 0.827025839543864,0.15113368596050997 l -5.24012592185648 27.341825451413882" fill="#aeff20" stroke="none" /><path d="M 105.01212808612495 79.60689891045804 l 9.365924616032874 -38.10761501098363 a60.241698048613486,60.241698048613486 0 0,0 1.0048633979499988,0.2561620543543307 l -10.0204969026679 37.94074996046044" fill="#34ff2f" stroke="none" /><path d="M 106.74666289553966 80.11325718540242 l 14.13773487969812 -41.67297253274624 a65.00581992468332,65.00581992468332 0 0,0 1.056555056234125,0.36861131311773365 l -14.85297193999552 41.423440366456305" fill="#35ff64" stroke="none" /><path d="M 107.76421540070413 80.48803036053334 l 11.023006253584409 -27.701519375168864 a50.814104758644305,50.814104758644305 0 0,0 0.8099190721497013,0.3303863253866695 l -11.498209195322497 27.507672163598617" fill="#97ff23" stroke="none" /><line stroke="#e1ed5e" stroke-width="0.3" x1="143.23703022742887" x2="145.7803849466894" y1="26.81831364943548" y2="22.513508569990506" /><path d="M 143.74570117128098 25.957352633546492 a86.0,86.0 0 0,1 28.547481713284135,27.462654790039103" fill="none" id="id50" stroke="none" /><text fill="#e1ed5e" style="font-size:6.75px; font-family:Arial;" text-anchor="middle"><textPath startOffset="19.985693538727396" xlink:href="#id50">February</textPath></text><path d="M 113.34407831869373 83.78471172551755 l 15.929750461241019 -19.35731263715176 a46.06915439917836,46.06915439917836 0 0,0 0.6079866152570954,0.5091713055187967 l -16.260594613457233 19.080240174239144" fill="#ceff1d" stroke="none" /><path d="M 117.04232023915458 87.72973835380427 l 12.265880834000674 -8.831283830030413 a36.114344402601844,36.114344402601844 0 0,0 0.3588860914704381,0.5076189250256621 l -12.416079545274998 8.618838404672958" fill="#ffb310" stroke="none" /><line stroke="#e1ed5e" stroke-width="0.3" x1="172.23445277983987" x2="176.4835382374775" y1="55.19839476539836" y2="52.563006222186495" /><path d="M 173.08426987136738 54.67131705675599 a86.0,86.0 0 0,1 12.851231095245387,41.99856678651699" fill="none" id="id51" stroke="none" /><text fill="#e1ed5e" style="font-size:6.75px; font-family:Arial;" text-anchor="middle"><textPath startOffset="22.20632615414155" xlink:href="#id51">March</textPath></text><path d="M 118.3937258080291 89.86733742301442 l 25.536696129234514 -14.067553681571 a50.155083875385145,50.155083875385145 0 0,0 0.41005817544867623,0.7597755220626465 l -25.775062403901657 13.625897176175895" fill="#9fff22" stroke="none" /><path d="M 118.89224826269711 90.83032412892265 l 32.060552768979655 -15.561137724385613 a56.637452927079764,56.637452927079764 0 0,0 0.4181510951436647,0.8807328481971322 l -32.32366205796507 15.00696246054794" fill="#58ff2a" stroke="none" /><path d="M 120.18372546131832 94.20196356495316 l 2.31250260905667 -0.6642963118551906 a23.4060253337898,23.4060253337898 0 0,0 0.10790537622712904,0.3881930502689829 l -2.323594755850162 0.6243919581672558" fill="#ff0000" stroke="none" /><path d="M 120.87857604477298 97.74499172005257 l 17.2165457605306 -1.8594875990984965 a38.31667237247518,38.31667237247518 0 0,0 0.06518007959224532,0.6563545063981273 l -17.246002965805072 1.5628575619959344" fill="#ffd013" stroke="none" /><line stroke="#e1ed5e" stroke-width="0.3" x1="184.98032266829074" x2="189.97916517819016" y1="98.17113171792111" y2="98.06355123074" /><path d="M 185.9800911702706 98.14961562048488 a86.0,86.0 0 0,1 -9.607161424134198,41.387399972396054" fill="none" id="id52" stroke="none" /><text fill="#e1ed5e" style="font-size:6.75px; font-family:Arial;" text-anchor="middle"><textPath startOffset="21.466115282336823" xlink:href="#id52">April</textPath></text><path d="M 120.9764740272857 100.99374915477107 l 27.88245686064406 1.320916370509341 a48.913728175282436,48.913728175282436 0 0,0 -0.047082139910377664,0.8406832360923969 l -27.855588369846153 -1.8006713229371614" fill="#adff20" stroke="none" /><path d="M 120.8583938346157 102.4346265915055 l 17.14277671994776 2.000933551526038 a38.25915782266347,38.25915782266347 0 0,0 -0.08198115997650002,0.6534705069955192 l -17.105794050724416 -2.2957218128089525" fill="#ffcf13" stroke="none" /><path d="M 120.49622156327973 104.57218783832717 l 39.944593387845636 8.910626943164596 a61.92639507018144,61.92639507018144 0 0,0 -0.24103945176179212,1.0383916496012495 l -39.78529337015329 -9.59688725011441" fill="#31ff3f" stroke="none" /><path d="M 120.32669344350535 105.2749913415812 l 41.18689590127593 10.68843389947688 a63.55118110236221,63.55118110236221 0 0,0 -0.2838980261887949,1.056490168106543 l -40.99680979874536 -11.395815000758972" fill="#33ff53" stroke="none" /><path d="M 120.02730092923936 106.31721596034902 l 24.006250024047727 7.572296753110361 a46.17220130092434,46.17220130092434 0 0,0 -0.2456091749024272,0.755907314176403 l -23.87234859812905 -7.98440296726456" fill="#cdff1d" stroke="none" /><path d="M 119.67450827220406 107.3425965602758 l 42.95028451982926 16.029199155320775 a66.84388907908252,66.84388907908252 0 0,0 -0.4115855824829758,1.074520078777027 l -42.668004657752775 -16.766142800930947" fill="#37ff79" stroke="none" /><path d="M 119.41010516605496 108.01547362559984 l 44.49505792259637 18.37439623314498 a69.13967819239986,69.13967819239986 0 0,0 -0.46372646828947023,1.0961123884520731 l -44.17218047311459 -19.137583147263218" fill="#3aff94" stroke="none" /><path d="M 119.12269723197855 108.67885076344098 l 22.402557318668457 10.167417772165368 a45.60184868195823,45.60184868195823 0 0,0 -0.33055994706776776,0.7119967179905434 l -22.22422275476086 -10.551534557434742" fill="#d4ff1c" stroke="none" /><line stroke="#e1ed5e" stroke-width="0.3" x1="174.80103733775053" x2="179.2010983576182" y1="140.37084112569926" y2="142.7455964860345" /><path d="M 175.68104954172406 140.8457921977663 a86.0,86.0 0 0,1 -30.038265399797805,32.042727171017184" fill="none" id="id53" stroke="none" /><text fill="#e1ed5e" style="font-size:6.75px; font-family:Arial;" text-anchor="middle"><textPath startOffset="22.206326154141568" xlink:href="#id53">May</textPath></text><path d="M 117.94076556474637 110.91462005526583 l 22.442847440459854 13.653550729866934 a47.269770626497774,47.269770626497774 0 0,0 -0.42888394186345746,0.6914974739039171 l -22.204498858928435 -14.037844535136122" fill="#c0ff1e" stroke="none" /><path d="M 115.80600337817218 113.82643327865902 l 38.77818859150105 33.92154388427368 a72.52105443341321,72.52105443341321 0 0,0 -0.8299901736781988,0.9325027587928756 l -38.18853956817451 -34.584020812807424" fill="#3effb9" stroke="none" /><path d="M 113.75828350139079 115.86535959552629 l 16.356704041708237 18.861727292729984 a45.96610749743239,45.96610749743239 0 0,0 -0.6022315752340132,0.5132348135494302 l -16.029606989897175 -19.140486496502362" fill="#cfff1d" stroke="none" /><path d="M 112.04921762599082 117.19931262002967 l 28.417343452739058 40.563527777947435 a70.52721670660733,70.52721670660733 0 0,0 -1.0002879020368076,0.6880071401329774 l -27.714898666079367 -41.0466757074455" fill="#3cffa3" stroke="none" /><line stroke="#e1ed5e" stroke-width="0.3" x1="143.8653032363475" x2="146.44561519142675" y1="172.8068346515853" y2="177.08958963109032" /><path d="M 144.38136562736335 173.6633856474863 a86.0,86.0 0 0,1 -40.68145358897372,12.25698825130547" fill="none" id="id54" stroke="none" /><text fill="#e1ed5e" style="font-size:6.75px; font-family:Arial;" text-anchor="middle"><textPath startOffset="21.466115282336833" xlink:href="#id54">June</textPath></text><path d="M 109.89434966115114 118.52300852407294 l 15.237275896066945 28.52539085157642 a53.339952071208494,53.339952071208494 0 0,0 -0.8135843765337512,0.42562889343016025 l -14.744000617006698 -28.783449163951296" fill="#7bff26" stroke="none" /><path d="M 107.2578585660854 119.70592522655815 l 12.02188943132827 32.640819886282266 a55.784320438206095,55.784320438206095 0 0,0 -0.9039196699373541,0.3241134337181112 l -11.458250200761182 -32.84292086104034" fill="#61ff29" stroke="none" /><line stroke="#e1ed5e" stroke-width="0.3" x1="102.19456741930631" x2="102.32365962044197" y1="184.97166512339345" y2="189.96999836594603" /><path d="M 102.22038585953345 185.97133177190398 a86.0,86.0 0 0,1 -42.740103519485714,-10.115201625700543" fill="none" id="id55" stroke="none" /><text fill="#e1ed5e" style="font-size:6.75px; font-family:Arial;" text-anchor="middle"><textPath startOffset="22.20632615414155" xlink:href="#id55">July</textPath></text><path d="M 99.81925306533755 120.99922214144158 l -0.33158595476817493 38.52373560947333 a59.52516261554262,59.52516261554262 0 0,0 -1.0245139635690996,-0.01763793699223476 l 0.9946596082299426 -38.51232019520193" fill="#3bff2e" stroke="none" /><line stroke="#e1ed5e" stroke-width="0.3" x1="58.666819895761336" x2="56.23545636021788" y1="174.27360380694188" y2="178.64263932499728" /><path d="M 58.180547188652646 175.14741091055294 a86.0,86.0 0 0,1 -31.652253787137756,-30.449443065178592" fill="none" id="id56" stroke="none" /><text fill="#e1ed5e" style="font-size:6.75px; font-family:Arial;" text-anchor="middle"><textPath startOffset="22.20632615414155" xlink:href="#id56">August</textPath></text><path d="M 88.24862548938628 117.40417183066458 l -14.241652094341847 21.092354769103938 a46.45018829168093,46.45018829168093 0 0,0 -0.6588032757451235,-0.45313090034647946 l 14.602612254709861 -20.84408307939235" fill="#c9ff1d" stroke="none" /><line stroke="#e1ed5e" stroke-width="0.3" x1="26.63291911575756" x2="22.317208475507996" y1="142.92168965132927" y2="145.44649492493687" /><path d="M 25.769776987707644 143.4266507060508 a86.0,86.0 0 0,1 -11.730757126820373,-40.83630448921669" fill="none" id="id57" stroke="none" /><text fill="#e1ed5e" style="font-size:6.75px; font-family:Arial;" text-anchor="middle"><textPath startOffset="21.46611528233685" xlink:href="#id57">September</textPath></text><path d="M 80.20201598880116 107.00284435728193 l -23.894040728339483 8.451681150589259 a46.34474495035947,46.34474495035947 0 0,0 -0.2595508068457041,-0.754376137733209 l 24.035982366128415 -8.039132309766755" fill="#cbff1d" stroke="none" /><path d="M 79.86692584326677 105.97154293290107 l -25.58506376918649 7.588622857558644 a47.68675111263266,47.68675111263266 0 0,0 -0.22664232781050042,-0.7889716757884337 l 25.711898733883096 -7.147093706265614" fill="#bbff1f" stroke="none" /><path d="M 79.58551787078972 104.9243191809786 l -24.69865794064675 5.957735017315435 a46.40705237932215,46.40705237932215 0 0,0 -0.18063267611032743,-0.7781608410869406 l 24.797551182687634 -5.53170551887992" fill="#caff1d" stroke="none" /><path d="M 79.4281124754447 104.21870165774334 l -19.693890727318767 4.038649801073706 a41.103731598767546,41.103731598767546 0 0,0 -0.13617092201316547,-0.6943325976640932 l 19.760491582307598 -3.699053476341659" fill="#fff316" stroke="none" /><path d="M 79.29508885075956 103.50808413554451 l -32.986564481860746 5.588994935106345 a54.45669291338583,54.45669291338583 0 0,0 -0.14863629052767646,-0.9255583230002739 l 33.07788252674972 -5.020357382412857" fill="#6fff27" stroke="none" /><path d="M 79.18660465613746 102.79330883721812 l -26.2477270278472 3.5226356225148336 a47.483053748716195,47.483053748716195 0 0,0 -0.10174598833538187,-0.8110156358038669 l 26.30447452542943 -3.070302232423558" fill="#bdff1f" stroke="none" /><path d="M 79.07016306316243 101.71520430193888 l -25.33649551819844 2.0763308495911947 a46.421431016775074,46.421431016775074 0 0,0 -0.05841018853282666,-0.7969606154195188 l 25.368482265395603 -1.639897097674915" fill="#caff1d" stroke="none" /><path d="M 79.0095281055655 100.63252640178507 l -14.000833986416712 0.4219008123283996 a35.00718931872646,35.00718931872646 0 0,0 -0.012965891623577665,-0.6024740352547984 l 14.006021940725297 -0.18083696128347246" fill="#ffa40f" stroke="none" /><line stroke="#e1ed5e" stroke-width="0.3" x1="15.007084014347285" x2="10.007500721073583" y1="101.09737516637583" y2="101.16192664675087" /><path d="M 14.007167355692545 101.11028546245083 a86.0,86.0 0 0,1 10.666146001902534,-42.60595125391555" fill="none" id="id58" stroke="none" /><text fill="#e1ed5e" style="font-size:6.75px; font-family:Arial;" text-anchor="middle"><textPath startOffset="22.20632615414155" xlink:href="#id58">October</textPath></text><path d="M 79.16333360222342 97.38593545837743 l -26.98090307150187 -3.384889918268997 a48.1923998630606,48.1923998630606 0 0,0 0.11034682859145968,-0.8222120439438193 l 26.91864024385258 3.8488203042774765" fill="#b5ff1f" stroke="none" /><path d="M 79.26566170972629 96.67025291283419 l -12.083791583753037 -1.9405475720821403 a33.23861691201643,33.23861691201643 0 0,0 0.09558181909329073,-0.5641293068651669 l 12.048597903139523 2.1482626672631358" fill="#ff8c0c" stroke="none" /><path d="M 79.3925641242962 95.95851677861259 l -26.150255270777844 -5.128528291889536 a47.648408079424854,47.648408079424854 0 0,0 0.16477433063130925,-0.8034981545707027 l 26.05810164423154 5.577902102623641" fill="#bbff1f" stroke="none" /><path d="M 79.62865764111835 94.90015583598534 l -24.97657221314897 -6.252736014854892 a46.74734679904142,46.74734679904142 0 0,0 0.20213478879446703,-0.778907797194832 l 24.865241092484194 6.6817402375985875" fill="#c6ff1e" stroke="none" /><path d="M 80.02781315780177 93.51064311812611 l -24.325362337873067 -7.903789341577091 a46.57719958918179,46.57719958918179 0 0,0 0.254317512067994,-0.7603769909393754 l 24.185707532033298 8.321339435438789" fill="#c8ff1d" stroke="none" /><path d="M 80.65960295795068 91.81776055985345 l -22.999689327307546 -9.730356864745763 a45.97329681615885,45.97329681615885 0 0,0 0.31460904055437783,-0.7261610419092436 l 22.828789576910488 10.124817051241605" fill="#cfff1d" stroke="none" /><path d="M 80.95270993114464 91.15688171328213 l -22.846749505162464 -10.607099887218025 a46.188976377952756,46.188976377952756 0 0,0 0.3410105867732604,-0.718255264286706 l 22.660780724547454 10.998797567145262" fill="#cdff1d" stroke="none" /><line stroke="#e1ed5e" stroke-width="0.3" x1="26.266209847984243" x2="21.928928074336255" y1="57.71137044288968" y2="55.22380399835378" /><path d="M 25.398753493254645 57.2138571539825 a86.0,86.0 0 0,1 29.58750427330803,-30.4925239686951" fill="none" id="id59" stroke="none" /><text fill="#e1ed5e" style="font-size:6.75px; font-family:Arial;" text-anchor="middle"><textPath startOffset="21.46611528233685" xlink:href="#id59">November</textPath></text><path d="M 83.39014120810768 87.1503855733568 l -19.953438719873393 -15.436253688151664 a46.227319411160565,46.227319411160565 0 0,0 0.4923119691135797,-0.6251862057110299 l 19.68477267016584 15.77743228781574" fill="#ccff1d" stroke="none" /><path d="M 83.84228863543731 86.58626213691792 l -17.420752821224273 -14.462284072851705 a43.64156110920918,43.64156110920918 0 0,0 0.4848149056015042,-0.5738679297391499 l 17.169227302135646 14.76001095221997" fill="#ebff1a" stroke="none" /><path d="M 84.07557802195018 86.31012108654704 l -39.92644930728431 -34.32389930474438 a73.65217391304347,73.65217391304347 0 0,0 0.8347531741182878,-0.9542671796940254 l 39.32970426958818 35.006082040641346" fill="#40ffc5" stroke="none" /><path d="M 84.5562425177563 85.77008943001954 l -19.49018760654263 -17.958299782427698 a47.50222526532009,47.50222526532009 0 0,0 0.5592429697479832,-0.5965614080387132 l 19.17817731482419 18.291130607344463" fill="#bdff1f" stroke="none" /><path d="M 85.05521093208273 85.24692304244772 l -18.824669831298745 -18.58318651802604 a47.45190003423485,47.45190003423485 0 0,0 0.578832285848115,-0.5763465960603833 l 18.50200174528332 18.904468964736534" fill="#beff1f" stroke="none" /><path d="M 85.57189188830299 84.74124197986013 l -18.534430333604167 -19.60148796447729 a47.97672030126669,47.97672030126669 0 0,0 0.604945585578795,-0.562230992443856 l 18.194276864230517 19.917623542995795" fill="#b8ff1f" stroke="none" /><path d="M 86.37877921826538 84.01681056812373 l -14.50878406672497 -17.024659381163186 a43.36836699760356,43.36836699760356 0 0,0 0.5723436213227182,-0.47932132313638426 l 14.213582908443142 17.271881861693387" fill="#efff19" stroke="none" /><path d="M 86.93701828274178 83.55741782278169 l -13.996158318308515 -17.61718635877014 a43.50017117425539,43.50017117425539 0 0,0 0.5902920299835793,-0.46073229245921243 l 13.69083373316551 17.855497040452573" fill="#edff1a" stroke="none" /><path d="M 87.51073957382395 83.11751280151077 l -6.506159288542012 -8.794768237031082 a31.93974666210202,31.93974666210202 0 0,0 0.44480611932406683,-0.32317056240596265 l 6.353807852864163 8.905458034253712" fill="#ff7b0b" stroke="none" /><path d="M 88.39885842347998 82.49532879139004 l -5.831681917673252 -8.799278406245222 a31.556316330023964,31.556316330023964 0 0,0 0.4553621139418551,-0.2961801856290361 l 5.679352777947107 8.898357516033792" fill="#ff750a" stroke="none" /><line stroke="#e1ed5e" stroke-width="0.3" x1="56.76296977257108" x2="54.21961505331056" y1="26.818313649435495" y2="22.513508569990535" /><path d="M 56.25429882871898 25.957352633546506 a86.0,86.0 0 0,1 42.26535254187918,-11.944610805530505" fill="none" id="id60" stroke="none" /><text fill="#e1ed5e" style="font-size:6.75px; font-family:Arial;" text-anchor="middle"><textPath startOffset="22.20632615414155" xlink:href="#id60">December</textPath></text><path d="M 89.3179101791058 81.91981866633112 l -11.059979566926064 -18.719786059611742 a42.74289626840123,42.74289626840123 0 0,0 0.6366722674596038,-0.36880167166394134 l 10.736110567001138 18.90739188866573" fill="#f6ff19" stroke="none" /><path d="M 89.94658935756843 81.56283822128135 l -12.211400533840198 -22.39474494724196 a46.507702841492645,46.507702841492645 0 0,0 0.7061529250285521,-0.377202436925773 l 11.824102562283342 22.601626110669482" fill="#c9ff1d" stroke="none" /><path d="M 90.58718382345135 81.22770947309562 l -4.796099991816692 -9.56502079226613 a31.700102704553235,31.700102704553235 0 0,0 0.4898854364927651,-0.24038465613790636 l 4.630743288313502 9.646160608538866" fill="#ff770b" stroke="none" /><path d="M 91.23893434514133 80.91482961587045 l -9.073996563220053 -19.766861395225362 a42.7500855871277,42.7500855871277 0 0,0 0.6714163173195495,-0.30124493026539323 l 8.73239812743373 19.920126656007284" fill="#f6ff19" stroke="none" /><path d="M 91.90106846888425 80.62456947434976 l -4.237544342139192 -10.13766392332607 a31.98767545361178,31.98767545361178 0 0,0 0.5098471880331277,-0.20797946949921428 l 4.062413284517684 10.209104279008862" fill="#ff7b0b" stroke="none" /><path d="M 92.57280143429618 80.3572730644239 l -22.28159569711144 -58.92818080672833 a84.0,84.0 0 0,0 1.3568706969097268,-0.4997469287747105 l 21.263942674429146 59.30299100330936" fill="#4dd2ff" stroke="none" /><path d="M 94.98787191387505 79.60689891045804 l -12.066742694622626 -49.096571229723466 a71.5576857240671,71.5576857240671 0 0,0 1.1986808977860037,-0.2836890406794012 l 11.219838109874088 49.29700618254373" fill="#3dffaf" stroke="none" /></svg>