<?xml version="1.0" encoding="utf-8" ?>
<svg baseProfile="full" height="200mm" version="1.1" viewBox="0,0,200,200" width="200mm" xmlns="http://www.w3.org/2000/svg" xmlns:ev="http://www.w3.org/2001/xml-events" xmlns:xlink="http://www.w3.org/1999/xlink"><defs /><rect fill="#1a1a1a" height="200" width="200" x="0" y="0" /><text alignment-baseline="middle" fill="#e1ed5e" style="dominant-baseline: central; font-size:9.0px; font-family:Arial;" text-anchor="middle" x="100.0" y="100.0">2024</text><line stroke="#e1ed5e" stroke-width="0.3" x1="100.0" x2="100.0" y1="15.0" y2="10.0" /><path d="M 100.0 14.0 a86.0,86.0 0 0,1 42.35913384403234,11.155469271406648" fill="none" id="id73" stroke="none" /><text fill="#e1ed5e" style="font-size:6.75px; font-family:Arial;" text-anchor="middle"><textPath startOffset="22.145653131862478" xlink:href="#id73">January</textPath></text><path d="M 100.72087961077811 79.0123766808444 l 0.6162576332724721 -17.941668596669462 a38.952249037468306,38.952249037468306 0 0,0 0.6680760319027121,0.028690059364144493 l -0.9241594257760205 17.928445968879487" fill="#ffda14" stroke="none" /><path d="M 101.44090949804482 79.04949213459386 l 0.512585726919736 -7.452883972309585 a28.470490186872006,28.470490186872006 0 0,0 0.48729413843377406,0.03771964817829483 l -0.6404488601287436 7.442986557136237" fill="#ff4d07" stroke="none" /><path d="M 102.87502721639298 79.19773525538626 l 1.0138459906432282 -7.335684541479081 a28.405413653864212,28.405413653864212 0 0,0 0.4824522816743869,0.07090387124937299 l -1.139623377925297 7.317199596930825" fill="#ff4c07" stroke="none" /><path d="M 103.23170211078529 79.25015418208739 l 2.7940915892572296 -17.94007234909583 a39.15635270917457,39.15635270917457 0 0,0 0.6632759789067747,0.1091418099229983 l -3.101645071217074 17.889464540677164" fill="#ffdd14" stroke="none" /><path d="M 103.94208987418118 79.37332000966035 l 1.2688058074707462 -6.63892813098781 a27.759085360127713,27.759085360127713 0 0,0 0.4672825825357766,0.0934696035191345 l -1.3825848755374797 6.616169130805816" fill="#ff4206" stroke="none" /><path d="M 104.64783097203109 79.52079915486377 l 7.211688713363939 -31.77603111694969 a53.5841158794253,53.5841158794253 0 0,0 0.8952830158269707,0.21128435400589682 l -7.756103882930795 31.647550619297565" fill="#78ff26" stroke="none" /><path d="M 105.3480935250658 79.69241777938227 l 2.643411613220383 -10.037464458467594 a31.37970701474317,31.37970701474317 0 0,0 0.5197355110927506,0.1416562247094882 l -2.815328525247826 9.990607739613964" fill="#ff750a" stroke="none" /><path d="M 105.69591212413111 79.78721728523813 l 4.239841433933354 -15.045701510398974 a36.63167903089492,36.63167903089492 0 0,0 0.6037947107711908,0.17575584050709359 l -4.497496157086149 14.970701975589366" fill="#ffbc11" stroke="none" /><path d="M 106.72888874123014 80.10723608172694 l 3.2638175012338198 -9.648896500033795 a31.1859564278336,31.1859564278336 0 0,0 0.5056494360444238,0.17589112196001205 l -3.428972709323262 9.591446945505194" fill="#ff730a" stroke="none" /><path d="M 107.06938296918511 80.22567764915836 l 16.479681676476062 -46.09660264981507 a69.95382195511316,69.95382195511316 0 0,0 1.127292011088865,0.4139572410931877 l -17.268562839219054 45.806914559713164" fill="#3bff9d" stroke="none" /><path d="M 108.07796709384702 80.6158196554323 l 7.0131303666437415 -16.828959839479246 a39.23178232697906,39.23178232697906 0 0,0 0.6194229980083269,0.2643948446815147 l -7.300988439822499 16.706090345138332" fill="#ffdd14" stroke="none" /><path d="M 109.06512990194946 81.05736502329252 l 6.483453433723596 -13.547924090651554 a36.01936801577613,36.01936801577613 0 0,0 0.5554525314269912,0.2716996672022473 l -6.715066214412654 13.434630673352085" fill="#ffb410" stroke="none" /><path d="M 109.3889696526874 81.21577127319529 l 14.697101101086718 -29.404047399893983 a53.87252324161893,53.87252324161893 0 0,0 0.8236667004993516,0.42057008613256514 l -15.199695023299649 29.147419362088584" fill="#75ff27" stroke="none" /><path d="M 110.34350942703115 81.72400993836675 l 7.767102369542175 -13.723725657606384 a36.76922715747958,36.76922715747958 0 0,0 0.5466490318817693,0.3156079657091878 l -8.001543869284342 13.588370794621024" fill="#ffbe11" stroke="none" /><line stroke="#e1ed5e" stroke-width="0.3" x1="143.13028292997686" x2="145.6673583964461" y1="26.7553504044142" y2="22.446841604673864" /><path d="M 143.63769802327073 25.89364864446614 a86.0,86.0 0 0,1 29.32050498858742,28.57503671076992" fill="none" id="id74" stroke="none" /><text fill="#e1ed5e" style="font-size:6.75px; font-family:Arial;" text-anchor="middle"><textPath startOffset="20.669276256404974" xlink:href="#id74">February</textPath></text><path d="M 113.59037401385872 83.9905735841838 l 20.219972606073267 -23.81907688755638 a52.24413090431027,52.24413090431027 0 0,0 0.6787271891738647,0.586268380565808 l -20.625879275009993 23.468464374525855" fill="#86ff25" stroke="none" /><path d="M 115.16444852881244 85.47280134310134 l 5.937118699291132 -5.687625410862498 a29.221828340689267,29.221828340689267 0 0,0 0.34390497152199273,0.36521516209761057 l -6.033879504549382 5.5848687888203905" fill="#ff5708" stroke="none" /><path d="M 115.8921839302757 86.27271002978787 l 6.792867706322891 -5.867517337018785 a29.976124518734153,29.976124518734153 0 0,0 0.33302822929563947,0.392306416722691 l -6.892590499125643 5.7500441378465394" fill="#ff6209" stroke="none" /><path d="M 116.1254893667686 86.54754324733833 l 14.929971115753125 -12.455112907584546 a40.44309324819232,40.44309324819232 0 0,0 0.4401617905572924,0.5369258151738623 l -15.141579725549043 12.196984810712191" fill="#ffed16" stroke="none" /><path d="M 117.01052211995028 87.68569379921539 l 11.671272407683041 -8.449101160299817 a35.40853601277115,35.40853601277115 0 0,0 0.35220516934409724,0.49542067854422955 l -11.814592675557098 8.247503255046084" fill="#ffac0f" stroke="none" /><path d="M 117.42321728460499 88.27688183743584 l 6.933128297822674 -4.664918134460103 a29.356418443046294,29.356418443046294 0 0,0 0.27773347168810564,0.42052387464603597 l -7.012186208431504 4.54521438147501" fill="#ff5908" stroke="none" /><path d="M 117.62189284568427 88.57770195909679 l 13.861788984419732 -8.985044146317593 a37.51908629918302,37.51908629918302 0 0,0 0.3456799726311132,0.5434663328934373 l -14.013986648676735 8.745764138745482" fill="#ffc712" stroke="none" /><line stroke="#e1ed5e" stroke-width="0.3" x1="172.87174338648825" x2="177.1583165268699" y1="56.24261187166439" y2="53.66864786411523" /><path d="M 173.72905801456457 55.72781907015455 a86.0,86.0 0 0,1 12.242430191666344,42.057860355516425" fill="none" id="id75" stroke="none" /><text fill="#e1ed5e" style="font-size:6.75px; font-family:Arial;" text-anchor="middle"><textPath startOffset="22.145653131862474" xlink:href="#id75">March</textPath></text><path d="M 118.18653347947321 89.5 l 16.506469406749787 -9.530014555357313 a40.06002911071462,40.06002911071462 0 0,0 0.3387297412540582,0.598502996338996 l -16.66763251302522 9.2452547889192" fill="#ffe815" stroke="none" /><path d="M 118.70294669586156 90.45014215332178 l 8.779355319366882 -4.482801381452039 a30.857615738567002,30.857615738567002 0 0,0 0.23683967537243333,0.47383800335371323 l -8.855014907951052 4.331431521934577" fill="#ff6e0a" stroke="none" /><path d="M 118.8641267826498 90.77261029715802 l 17.874774279305846 -8.743447816370262 a40.89862897924688,40.89862897924688 0 0,0 0.3030797614367927,0.6333201346061378 l -18.02223329870255 8.43531517969902" fill="#fff316" stroke="none" /><path d="M 119.16976305983485 91.42560881287824 l 6.163252537901169 -2.756744466795767 a27.751690299558643,27.751690299558643 0 0,0 0.19078113314355158,0.43654456827513527 l -6.209667553061691 2.650537828744782" fill="#ff4206" stroke="none" /><path d="M 119.4528033332814 92.08871423366111 l 8.725812594821287 -3.5487120184392213 a30.419828152878203,30.419828152878203 0 0,0 0.1925739172355438,0.4854120700270302 l -8.785445187022956 3.398398931198626" fill="#ff6809" stroke="none" /><path d="M 119.83427380445688 93.10060997987247 l 14.185631314038387 -4.934498942698496 a36.01936801577613,36.01936801577613 0 0,0 0.19813152912248666,0.5857406601850709 l -14.268248264733238 4.690256608039263" fill="#ffb410" stroke="none" /><path d="M 120.05942366710727 93.78553927170692 l 7.14295563392532 -2.212905914328795 a28.477885247441073,28.477885247441073 0 0,0 0.14065862173233332,0.46820680500951845 l -7.179890575661281 2.089961505728553" fill="#ff4d07" stroke="none" /><path d="M 120.26092885502905 94.47779374421319 l 60.782786565087164 -16.56661876736044 a84.0,84.0 0 0,0 0.3672420767810789,1.3944779825088056 l -61.058218122672976 15.520760280478832" fill="#4dd2ff" stroke="none" /><path d="M 120.592083275326 95.88100663000786 l 7.674897034441628 -1.535194354915841 a28.82693210630106,28.82693210630106 0 0,0 0.0928964465601869,0.48607346270476176 l -7.700119773283972 1.4032183271777647" fill="#ff5207" stroke="none" /><path d="M 120.77682067341334 96.94652285012252 l 31.437403653930808 -4.620215730676675 a52.77509625316931,52.77509625316931 0 0,0 0.1240352566390649,0.8974573289463149 l -31.512083427125088 4.079870093530275" fill="#80ff25" stroke="none" /><path d="M 120.99303781780057 99.45929381324524 l 31.6758504701305 -0.815857546133488 a52.686355526340506,52.686355526340506 0 0,0 0.015526338809131348,0.9043313969437933 l -31.685188240538295 0.27197923322062834" fill="#81ff25" stroke="none" /><line stroke="#e1ed5e" stroke-width="0.3" x1="184.99686870605535" x2="189.99668451229388" y1="99.2704041080226" y2="99.22748670261217" /><path d="M 185.99683186730306 99.26182062694052 a86.0,86.0 0 0,1 -10.086455211305974,41.156179273409016" fill="none" id="id76" stroke="none" /><text fill="#e1ed5e" style="font-size:6.75px; font-family:Arial;" text-anchor="middle"><textPath startOffset="21.40746469413373" xlink:href="#id76">April</textPath></text><path d="M 120.96210409425399 101.26102812881392 l 4.482177765294051 0.2696366841308368 a25.490280777537798,25.490280777537798 0 0,0 -0.03002517024888307,0.4365593857996958 l -4.476888633880103 -0.3465394940848758" fill="#ff2203" stroke="none" /><path d="M 120.51834098615036 104.47187691870673 l 15.465345471437308 3.3706000646069603 a36.82838764203211,36.82838764203211 0 0,0 -0.13992882477038637,0.6165522205391951 l -15.405205785109256 -3.6355866190851724" fill="#ffbe11" stroke="none" /><path d="M 119.58574465831526 107.57618678355244 l 14.915531293339496 5.769647926370034 a36.99255798666542,36.99255798666542 0 0,0 -0.2341828416733227,0.5902937405714181 l -14.814289776700049 -6.024842684155018" fill="#ffc111" stroke="none" /><path d="M 118.70294669586154 109.54985784667822 l 6.936546903493773 3.541850273777411 a28.78847779134191,28.78847779134191 0 0,0 -0.22851461687193197,0.43820690863357264 l -6.874724217646892 -3.660403425515487" fill="#ff5107" stroke="none" /><line stroke="#e1ed5e" stroke-width="0.3" x1="174.33088141563837" x2="178.70328620479359" y1="141.23008692659167" y2="143.65538615756765" /><path d="M 175.20536237346943 141.71514677278685 a86.0,86.0 0 0,1 -30.301960400862466,31.63118572779886" fill="none" id="id77" stroke="none" /><text fill="#e1ed5e" style="font-size:6.75px; font-family:Arial;" text-anchor="middle"><textPath startOffset="22.145653131862474" xlink:href="#id77">May</textPath></text><path d="M 118.36410011445183 110.18625677009912 l 13.629511245616497 7.560060135456697 a36.5858296553667,36.5858296553667 0 0,0 -0.3093534599906879,0.5465979221275281 l -13.49772442060443 -7.792914827683347" fill="#ffbb11" stroke="none" /><path d="M 117.62189284568427 111.42229804090321 l 21.562782864652913 13.976735338716248 a46.69635646539581,46.69635646539581 0 0,0 -0.4417821343390602,0.6689144587163305 l -21.31967629139313 -14.344829675771638" fill="#c5ff1e" stroke="none" /><path d="M 116.1254893667686 113.45245675266167 l 13.629589484265427 11.370288300922114 a38.74962437787586,38.74962437787586 0 0,0 -0.4304999061626516,0.5071278069829909 l -13.432395014595661 -11.60258289035466" fill="#ffd714" stroke="none" /><path d="M 115.16444852881244 114.52719865689866 l 12.377274438943145 11.857148927232503 a38.14027138698469,38.14027138698469 0 0,0 -0.45698074707883196,0.4689025043094102 l -12.171906890713503 -12.06787412360965" fill="#ffcf13" stroke="none" /><path d="M 114.65682725009322 115.03919595460226 l 3.246482418645635 3.331176961021512 a25.65149309794347,25.65149309794347 0 0,0 -0.3179899729538442,0.30462720086558265 l -3.188819959826479 -3.3864162921926746" fill="#ff2403" stroke="none" /><path d="M 112.45986205192187 116.90419585922612 l 9.366834975740494 12.707910597336335 a36.786975302845335,36.786975302845335 0 0,0 -0.5115473980635568,0.3703208667875795 l -9.14730656730297 -12.866832235496991" fill="#ffbe11" stroke="none" /><path d="M 111.5731344415666 117.5232005979908 l 7.564813180968609 11.454091328994686 a34.726711428303126,34.726711428303126 0 0,0 -0.5002537691203046,0.3242584492492103 l -7.367073779591294 -11.58226361994779" fill="#ffa30f" stroke="none" /><path d="M 110.96478420261333 117.91015095944535 l 8.32011820351366 13.590287804281918 a36.93487651422669,36.93487651422669 0 0,0 -0.5435885938639812,0.326409332046429 l -8.085596853092245 -13.731111136864271" fill="#ffc011" stroke="none" /><line stroke="#e1ed5e" stroke-width="0.3" x1="143.1302829299769" x2="145.6673583964461" y1="173.24464959558577" y2="177.55315839532614" /><path d="M 143.63769802327073 174.10635135553383 a86.0,86.0 0 0,1 -40.685524379131806,11.842963189579606" fill="none" id="id78" stroke="none" /><text fill="#e1ed5e" style="font-size:6.75px; font-family:Arial;" text-anchor="middle"><textPath startOffset="21.407464694133747" xlink:href="#id78">June</textPath></text><path d="M 108.07796709384702 119.3841803445677 l 7.781178228651452 18.671995110291043 a41.22844868062729,41.22844868062729 0 0,0 -0.6556217385206827,0.2666356534426569 l -7.459502028940329 -18.80281802031299" fill="#fff717" stroke="none" /><path d="M 107.74402155503746 119.51999308798841 l 6.179436863924394 15.576217604017417 a37.757207249507,37.757207249507 0 0,0 -0.6045247794316521,0.23384317135552693 l -5.911139821999214 -15.680000663510986" fill="#ffcb12" stroke="none" /><path d="M 103.2317021107853 120.74984581791261 l 1.7302610183719054 11.109516943452794 a32.243450089210256,32.243450089210256 0 0,0 -0.5476394835910929,0.08048414508654551 l -1.5392964291731275 -11.137582161838223" fill="#ff810b" stroke="none" /><path d="M 101.80034050326958 120.92268563240118 l 1.1802213403441582 13.715960972841833 a34.76664475537609,34.76664475537609 0 0,0 -0.5950576225103378,0.046061223389727124 l -0.9445947230585843 -13.734199963226613" fill="#ffa30f" stroke="none" /><path d="M 101.08105385017728 120.97215588758144 l 0.8409409175890746 16.31402914205585 a37.33568879707015,37.33568879707015 0 0,0 -0.6403501578537559,0.027499391035388263 l -0.5607649991344893 -16.32606110151707" fill="#ffc512" stroke="none" /><line stroke="#e1ed5e" stroke-width="0.3" x1="101.45913802915013" x2="101.54496967792366" y1="184.9874750549273" y2="189.98673829345242" /><path d="M 101.47630435890484 185.9873277026323 a86.0,86.0 0 0,1 -42.54439059252881,-10.42667462771756" fill="none" id="id79" stroke="none" /><text fill="#e1ed5e" style="font-size:6.75px; font-family:Arial;" text-anchor="middle"><textPath startOffset="22.145653131862474" xlink:href="#id79">July</textPath></text><path d="M 98.91894614982273 120.97215588758144 l -0.9059625150196711 17.575430761550262 a38.598765142266885,38.598765142266885 0 0,0 -0.6614277922456189,-0.03978985351139566 l 1.2075346593977363 -17.557288930214174" fill="#ffd513" stroke="none" /><path d="M 98.19965949673042 120.92268563240118 l -1.704905043217403 19.813580924025707 a40.88679688233637,40.88679688233637 0 0,0 -0.6987756787075581,-0.06617478328794006 l 2.0447802853099764 -19.781394385232584" fill="#fff216" stroke="none" /><path d="M 97.84075906011543 120.88869738790638 l -1.2316432790960503 11.915031468540729 a32.97851910977556,32.97851910977556 0 0,0 -0.5626199721621216,-0.06304274139372706 l 1.4359991528589713 -11.89213296664003" fill="#ff8b0c" stroke="none" /><path d="M 96.76829788921471 120.74984581791261 l -1.8515750308412764 11.888439928306822 a33.03176354587285,33.03176354587285 0 0,0 -0.5595305431951763,-0.09207053795642134 l 2.0553830770895156 -11.854903391854732" fill="#ff8c0c" stroke="none" /><path d="M 93.95794788825049 120.11202640906438 l -2.5744963336523043 8.569660985175101 a29.948023288571697,29.948023288571697 0 0,0 -0.4910896355427679,-0.15214082442241755 l 2.721226602066706 -8.524203572946035" fill="#ff6109" stroke="none" /><path d="M 93.61358852112213 120.00534299687104 l -1.647579015433115 5.161017799620054 a26.417621372898864,26.417621372898864 0 0,0 -0.4308302212213744,-0.1416224510910103 l 1.7359319743022328 -5.131974427127022" fill="#ff2f04" stroke="none" /><path d="M 93.27111125876986 119.89276391827306 l -2.4685966841769944 7.297967455884428 a28.70417410085454,28.70417410085454 0 0,0 -0.46540979045503716,-0.16189368439663251 l 2.593512246677052 -7.254515338919204" fill="#ff5007" stroke="none" /><path d="M 90.93487009805054 118.94263497670748 l -1.0968560314266025 2.292007246453902 a23.5409428115316,23.5409428115316 0 0,0 -0.36302347867725104,-0.1775729747595476 l 1.136039759365923 -2.2728405215971335" fill="#ff0500" stroke="none" /><line stroke="#e1ed5e" stroke-width="0.3" x1="58.13341422392154" x2="55.670673884152215" y1="173.97424548756322" y2="178.32567169271397" /><path d="M 57.64086615596767 174.84453072859336 a86.0,86.0 0 0,1 -31.369924170532244,-30.572349798747886" fill="none" id="id80" stroke="none" /><text fill="#e1ed5e" style="font-size:6.75px; font-family:Arial;" text-anchor="middle"><textPath startOffset="22.145653131862474" xlink:href="#id80">August</textPath></text><path d="M 88.72937992617639 117.7192867562869 l -8.276745857105745 13.012419218316522 a36.4216593107334,36.4216593107334 0 0,0 -0.5246702494541482,-0.34008491681006137 l 8.498901738816903 -12.868420459802566" fill="#ffb911" stroke="none" /><path d="M 86.68645165197938 116.24036423190432 l -5.688794569497683 6.939404389728867 a29.97316649450653,29.97316649450653 0 0,0 -0.3951115129580104,-0.3296160767374878 l 5.807080416617587 -6.840726129079508" fill="#ff6209" stroke="none" /><path d="M 83.4222238831116 112.89097897827486 l -9.655710053995715 7.508338540027216 a33.23143018123768,33.23143018123768 0 0,0 -0.34631584689774225,-0.45333856047718224 l 9.783177878247754 -7.341479066309166" fill="#ff8f0d" stroke="none" /><path d="M 83.20337586046588 112.60449989151573 l -4.380545064468128 3.287242682290548 a26.476781857451403,26.476781857451403 0 0,0 -0.26968238891563495,-0.3658759545665043 l 4.436329472967594 -3.211560418455164" fill="#ff3004" stroke="none" /><path d="M 82.78059297857968 112.02048342749411 l -3.6697759634814004 2.561788631674138 a25.475490656399664,25.475490656399664 0 0,0 -0.24724602168760018,-0.3607393346790822 l 3.7132117219843233 -2.4984145619250047" fill="#ff2103" stroke="none" /><path d="M 82.37810715431573 111.42229804090323 l -4.342591069610945 2.814815065624968 a26.17506338623345,26.17506338623345 0 0,0 -0.24116246122890944,-0.3791474450719586 l 4.390271222465744 -2.7398539458743354" fill="#ff2c04" stroke="none" /><path d="M 81.99639281039703 110.81064883170646 l -13.044965074183171 7.833126714756973 a36.21607662691333,36.21607662691333 0 0,0 -0.3154701205246289,-0.5357372330067458 l 13.17750890483757 -7.608038313456671" fill="#ffb610" stroke="none" /><line stroke="#e1ed5e" stroke-width="0.3" x1="26.387840678322732" x2="22.057713659400548" y1="142.50000000000003" y2="145.00000000000006" /><path d="M 25.521815274538298 143.00000000000003 a86.0,86.0 0 0,1 -11.493303480769221,-40.785679425670985" fill="none" id="id81" stroke="none" /><text fill="#e1ed5e" style="font-size:6.75px; font-family:Arial;" text-anchor="middle"><textPath startOffset="21.40746469413373" xlink:href="#id81">September</textPath></text><path d="M 81.81346652052679 110.50000000000001 l -7.436685138169413 4.293572166400605 a29.587144332801202,29.587144332801202 0 0,0 -0.25017569799058603,-0.44203648697697717 l 7.509294201181377 -4.165278909324506" fill="#ff5c08" stroke="none" /><path d="M 81.4637452351635 109.86951160357371 l -5.95304641710403 3.1696619104349804 a27.744295238989576,27.744295238989576 0 0,0 -0.22022619753887115,-0.42231277169337333 l 6.006580683617851 -3.067002895637103" fill="#ff4206" stroke="none" /><path d="M 80.68587082218212 108.24405325689762 l -2.758643110100571 1.1775007046428088 a23.999436566813785,23.999436566813785 0 0,0 -0.15848102845252804,-0.3802967752934178 l 2.7784499830895846 -1.1299714199081097" fill="#ff0c01" stroke="none" /><path d="M 79.94057633289273 106.21446072829308 l -4.267972501995331 1.3222287909785004 a25.468095595830594,25.468095595830594 0 0,0 -0.12579259989042385,-0.4187226532093815 l 4.290041421889384 -1.2487685341783954" fill="#ff2103" stroke="none" /><path d="M 79.56144815229197 104.8234425847677 l -2.1548862885730307 0.5085472966520745 a23.214081134378816,23.214081134378816 0 0,0 -0.08820150159250076,-0.38863209028577966 l 2.163298651723198 -0.4714808724272686" fill="#ff0000" stroke="none" /><path d="M 79.34024301695615 103.76489593502545 l -9.693537023737306 1.766485354432781 a30.853178702225563,30.853178702225563 0 0,0 -0.09048088768196526,-0.5218697157893575 l 9.722432728911507 -1.5998226057228309" fill="#ff6e0a" stroke="none" /><path d="M 79.17382384314188 102.69636545807758 l -3.0112784991569446 0.3898702896116966 a24.036411869659123,24.036411869659123 0 0,0 -0.049466836895722885,-0.40965637105830754 l 3.0175274223123285 -0.33812024162998977" fill="#ff0c01" stroke="none" /><path d="M 79.03789590574601 101.26102812881392 l -11.933281579997303 0.7178765869003827 a32.95485491595455,32.95485491595455 0 0,0 -0.029123320329969945,-0.5649846340438642 l 11.943846489783844 -0.5129201594797879" fill="#ff8b0c" stroke="none" /><line stroke="#e1ed5e" stroke-width="0.3" x1="15.003131293944662" x2="10.003315487706104" y1="100.72959589197737" y2="100.7725132973878" /><path d="M 14.003168132696942 100.73817937305945 a86.0,86.0 0 0,1 10.791469493833604,-42.453326145846276" fill="none" id="id82" stroke="none" /><text fill="#e1ed5e" style="font-size:6.75px; font-family:Arial;" text-anchor="middle"><textPath startOffset="22.145653131862435" xlink:href="#id82">October</textPath></text><path d="M 79.01933749520258 99.09900007780938 l -6.302178062467909 -0.27064264260562065 a27.307986665414592,27.307986665414592 0 0,0 0.024132991792917464,-0.46817359360199423 l 6.296603481218421 0.3787880295843269" fill="#ff3c05" stroke="none" /><path d="M 79.17382384314186 97.30363454192245 l -6.497790429257316 -0.8412690613637601 a27.552023664193822,27.552023664193822 0 0,0 0.06475444989660185,-0.4685309420586688 l 6.482391462805507 0.9526883116224959" fill="#ff3f05" stroke="none" /><path d="M 79.2786578344484 96.59031103205396 l -2.6341925961701076 -0.43345538927194543 a23.669616865433373,23.669616865433373 0 0,0 0.06941417497840965,-0.4003625151762941 l 2.6263636036994633 0.47861093736883226" fill="#ff0701" stroke="none" /><path d="M 79.34024301695615 96.23510406497455 l -6.170863181877802 -1.1245368340062154 a27.27249037468307,27.27249037468307 0 0,0 0.08788716868352035,-0.4598628041347092 l 6.1506497209121225 1.2303022031742392" fill="#ff3b05" stroke="none" /><path d="M 79.407916724674 95.88100663000787 l -18.681093858776002 -3.736741966302139 a40.05115503803174,40.05115503803174 0 0,0 0.1406411360301264,-0.6730187485685193 l 18.61419501192151 4.056877166156068" fill="#ffe815" stroke="none" /><path d="M 79.56144815229197 95.17655741523228 l -5.164817637541769 -1.2188828993905452 a26.30669546436285,26.30669546436285 0 0,0 0.10749726699902169,-0.43862553288831985 l 5.143132844026449 1.307364256886982" fill="#ff2d04" stroke="none" /><path d="M 79.73907114497095 94.47779374421319 l -3.574534706205825 -0.9742553294261875 a24.704925345102826,24.704925345102826 0 0,0 0.11503261206804909,-0.40821015882468087 l 3.5572836020631935 1.0354734121538816" fill="#ff1602" stroke="none" /><path d="M 80.05021161711548 93.44210830539832 l -29.680204465211705 -9.756472731484127 a52.24265189219645,52.24265189219645 0 0,0 0.28737085282231617,-0.8495608639149694 l 29.508348190817024 10.264535269873258" fill="#86ff25" stroke="none" /><path d="M 80.41425534168474 92.42381321644754 l -3.725779156876903 -1.4412114167322174 a24.994811719410272,24.994811719410272 0 0,0 0.15823063756906994,-0.398844570576781 l 3.700489844341702 1.5049570045225813" fill="#ff1a02" stroke="none" /><path d="M 80.83023694016515 91.42560881287825 l -7.163684110866073 -3.204224784407078 a28.84763827589445,28.84763827589445 0 0,0 0.2060758996964925,-0.4503130316154268 l 7.107623746314533 3.326726798237176" fill="#ff5207" stroke="none" /><path d="M 81.63589988554816 89.8137432299009 l -5.445078985010957 -3.02029352536275 a27.22664099915485,27.22664099915485 0 0,0 0.23021633447576945,-0.40677020411556836 l 5.392429285513819 3.1133204995774246" fill="#ff3b05" stroke="none" /><line stroke="#e1ed5e" stroke-width="0.3" x1="26.387840678322718" x2="22.05771365940052" y1="57.5" y2="55.0" /><path d="M 25.521815274538284 57.0 a86.0,86.0 0 0,1 29.574782752854787,-30.346332500585742" fill="none" id="id83" stroke="none" /><text fill="#e1ed5e" style="font-size:6.75px; font-family:Arial;" text-anchor="middle"><textPath startOffset="21.40746469413373" xlink:href="#id83">November</textPath></text><path d="M 82.18462484594161 88.88188828441811 l -16.582401965163555 -10.348645255408739 a40.54662409615926,40.54662409615926 0 0,0 0.3735740203286721,-0.5873204089521813 l 16.402310253208988 10.631779339039594" fill="#ffee16" stroke="none" /><path d="M 82.78059297857968 87.97951657250589 l -4.338000205344665 -3.0282610494046227 a26.2904263311109,26.2904263311109 0 0,0 0.26150824351329155,-0.36784409407600555 l 4.2853768633014 3.1022823701901463" fill="#ff2d04" stroke="none" /><path d="M 82.98947788004972 87.6856937992154 l -4.369239424227066 -3.1629923970040448 a26.393957179077848,26.393957179077848 0 0,0 0.26883876837123427,-0.3647314212760086 l 4.314298636272013 3.237530127548917" fill="#ff2f04" stroke="none" /><path d="M 83.64595745247001 86.82634096563983 l -24.43891971829451 -19.686263784701897 a52.381679030894915,52.381679030894915 0 0,0 0.5700952074348723,-0.6954234568864419 l 24.097377691621013 20.102889523286834" fill="#85ff25" stroke="none" /><path d="M 84.58840730492382 85.73525988315684 l -3.996536128035765 -3.699134175289922 a26.44572260306132,26.44572260306132 0 0,0 0.3112336220940679,-0.33051932119580846 l 3.932446672205425 3.7671949564302394" fill="#ff2f04" stroke="none" /><path d="M 85.86807049272753 84.46653392183569 l -1.76168057290865 -1.9363955506397894 a23.6178514414499,23.6178514414499 0 0,0 0.30223536540986445,-0.27026072742524637 l 1.7281801806753936 1.9663518079484366" fill="#ff0601" stroke="none" /><path d="M 87.25179093698888 83.31218511350988 l -19.212995990659334 -25.150428497229928 a52.649380223495164,52.649380223495164 0 0,0 0.7229186391974369,-0.5424916241289159 l 18.778424362551146 25.476539148622848" fill="#82ff25" stroke="none" /><path d="M 88.12776184653039 82.6780497279521 l -1.4732991567104978 -2.1495874997193463 a23.606019344539394,23.606019344539394 0 0,0 0.33622133377171465,-0.2262247184429872 l 1.436181534841794 2.174561892219443" fill="#ff0600" stroke="none" /><path d="M 88.4268655584334 82.4767994020092 l -2.5707812490868425 -3.8924904699546654 a25.66480420696779,25.66480420696779 0 0,0 0.36971295323419434,-0.23964346954122556 l 2.503582663595622 3.9360477811997976" fill="#ff2403" stroke="none" /><path d="M 88.72937992617638 82.28071324371311 l -4.038753516922804 -6.349591347731314 a28.525213635083105,28.525213635083105 0 0,0 0.4154301696926481,-0.2592591509707185 l 3.929159218440457 6.417986295543569" fill="#ff4d07" stroke="none" /><line stroke="#e1ed5e" stroke-width="0.3" x1="56.869717070023135" x2="54.33264160355391" y1="26.7553504044142" y2="22.446841604673864" /><path d="M 56.362301976729285 25.89364864446614 a86.0,86.0 0 0,1 42.16139366436587,-11.88097634709845" fill="none" id="id84" stroke="none" /><text fill="#e1ed5e" style="font-size:6.75px; font-family:Arial;" text-anchor="middle"><textPath startOffset="22.145653131862474" xlink:href="#id84">December</textPath></text><path d="M 89.34428304082924 81.90426304109057 l -15.938547054573329 -27.067137397876692 a52.41125927317119,52.41125927317119 0 0,0 0.7791995197145485,-0.4498710524596193 l 15.47155506699838 27.336755347612485" fill="#84ff25" stroke="none" /></svg>