<?xml version="1.0" encoding="utf-8" ?>
<svg baseProfile="full" height="200mm" version="1.1" viewBox="0,0,200,200" width="200mm" xmlns="http://www.w3.org/2000/svg" xmlns:ev="http://www.w3.org/2001/xml-events" xmlns:xlink="http://www.w3.org/1999/xlink"><defs /><rect fill="#1a1a1a" height="200" width="200" x="0" y="0" /><text alignment-baseline="middle" fill="#e1ed5e" style="dominant-baseline: central; font-size:9.0px; font-family:Arial;" text-anchor="middle" x="100.0" y="100.0">2021</text><line stroke="#e1ed5e" stroke-width="0.3" x1="100.0" x2="100.0" y1="15.0" y2="10.0" /><path d="M 100.0 14.0 a86.0,86.0 0 0,1 42.46469731375804,11.215312516191453" fill="none" id="id37" stroke="none" /><text fill="#e1ed5e" style="font-size:6.75px; font-family:Arial;" text-anchor="middle"><textPath startOffset="22.20632615414155" xlink:href="#id37">January</textPath></text><path d="M 100.36148047927253 79.00311137660856 l 0.6544232023205411 -38.01270574649212 a59.018338573603266,59.018338573603266 0 0,0 1.0156026474072162,0.026230020062858714 l -1.3086524849226249 37.9958089342869" fill="#3aff2e" stroke="none" /><path d="M 101.80526077348638 79.07773832637324 l 0.7056258374818916 -8.177925667191474 a29.208311400076823,29.208311400076823 0 0,0 0.5005398739529151,0.04753229227279705 l -0.8462908385250509 8.164567830403499" fill="#ff6709" stroke="none" /><path d="M 102.88285421437855 79.19881850522331 l 1.7283836652694862 -12.471120507780507 a33.5903199647171,33.5903199647171 0 0,0 0.5720447798433074,0.0843045305208818 l -1.9427974255414493 12.439521493098656" fill="#ffa20e" stroke="none" /><path d="M 105.01212808612495 79.60689891045804 l 2.332394792486179 -9.4899336103491 a30.772354137916317,30.772354137916317 0 0,0 0.5132991489880321,0.13085138215935566 l -2.4954028301592364 9.448379232020876" fill="#ff7c0b" stroke="none" /><path d="M 105.71112130821622 79.79150937346287 l 3.4540222056405883 -12.221868806414843 a33.70056481099461,33.70056481099461 0 0,0 0.5568774122695606,0.1625677872255853 l -3.663889835633576 12.160602690270554" fill="#ffa30f" stroke="none" /><path d="M 107.76421540070413 80.48803036053334 l 0.33536055366469464 -0.8427825097158971 a21.90705515799058,21.90705515799058 0 0,0 0.3491735586283983,0.14243666179045153 l -0.3498179818814804 0.8368849617418662" fill="#ff0000" stroke="none" /><path d="M 110.36928655335952 81.73862282372117 l 4.473948317713073 -7.879081870918751 a30.060692284710267,30.060692284710267 0 0,0 0.4477658462386508,0.25937487942697685 l -4.608910896417052 7.800902834101724" fill="#ff730a" stroke="none" /><line stroke="#e1ed5e" stroke-width="0.3" x1="143.23703022742887" x2="145.7803849466894" y1="26.81831364943548" y2="22.513508569990506" /><path d="M 143.74570117128098 25.957352633546492 a86.0,86.0 0 0,1 28.547481713284135,27.462654790039103" fill="none" id="id38" stroke="none" /><text fill="#e1ed5e" style="font-size:6.75px; font-family:Arial;" text-anchor="middle"><textPath startOffset="19.985693538727396" xlink:href="#id38">February</textPath></text><path d="M 112.19680574252982 82.90503203632743 l 8.334342213059045 -11.68136282057212 a35.34975600734112,35.34975600734112 0 0,0 0.4922953195284621,0.35767348597541365 l -8.534182848941295 11.536170099780032" fill="#ffb911" stroke="none" /><path d="M 114.42810811169701 84.74124197986012 l 0.6897017066013448 -0.729408967941925 a22.003855510819616,22.003855510819616 0 0,0 0.272970145985702,0.26259706416428213 l -0.702155096199465 0.7174288170153409" fill="#ff0100" stroke="none" /><path d="M 116.38621287248628 86.86637796730983 l 18.386669454011205 -14.73699682337598 a44.56371551736403,44.56371551736403 0 0,0 0.47459491090618616,0.6026873409830664 l -18.637618445511354 14.418317088439876" fill="#d5ff1c" stroke="none" /><path d="M 117.65298651832404 88.62581576622439 l 21.94712590699516 -14.140987034058663 a47.10830997737911,47.10830997737911 0 0,0 0.433334546434331,0.6854311869426912 l -22.18728804967545 13.761108199401766" fill="#b7ff1f" stroke="none" /><line stroke="#e1ed5e" stroke-width="0.3" x1="172.23445277983987" x2="176.4835382374775" y1="55.19839476539836" y2="52.563006222186495" /><path d="M 173.08426987136738 54.67131705675599 a86.0,86.0 0 0,1 12.851231095245387,41.99856678651699" fill="none" id="id39" stroke="none" /><text fill="#e1ed5e" style="font-size:6.75px; font-family:Arial;" text-anchor="middle"><textPath startOffset="22.20632615414155" xlink:href="#id39">March</textPath></text><path d="M 118.03404312379186 89.2402003453031 l 10.260231110421778 -6.121646177799213 a32.94767317787989,32.94767317787989 0 0,0 0.2863942374921648,0.4895405879301832 l -10.36408502238427 5.944126177515133" fill="#ff990e" stroke="none" /><path d="M 119.34039704204932 91.81776055985345 l 9.64804851231939 -4.081748833093351 a31.47594929505328,31.47594929505328 0 0,0 0.20680944701843026,0.5008054799333204 l -9.716879646224017 3.915068782706727" fill="#ff860c" stroke="none" /><path d="M 119.85752413597 93.16781622104841 l 7.796498649580503 -2.682464905571666 a29.24505968216933,29.24505968216933 0 0,0 0.15968179461731588,0.47742824122332617 l -7.841517737969589 2.547863561426026" fill="#ff6809" stroke="none" /><path d="M 120.18372546131832 94.20196356495316 l 12.094039824927703 -3.474169507815845 a33.58314956821124,33.58314956821124 0 0,0 0.15482348401197044,0.5569824471523181 l -12.152050079506038 3.2654757572445754" fill="#ffa20e" stroke="none" /><path d="M 120.45610955862082 95.25157060432595 l 9.727049037228928 -2.2579173937830093 a30.985673433965488,30.985673433965488 0 0,0 0.11613078198928252,0.520591524699941 l -9.76447420622025 2.0901476995331043" fill="#ff7f0b" stroke="none" /><path d="M 120.53481517161879 95.60439243477599 l 17.556947069293958 -3.7581759911181347 a38.95467285065942,38.95467285065942 0 0,0 0.13471027475313532,0.656895141076607 l -17.61903663996209 3.4554051938781165" fill="#ffe615" stroke="none" /><path d="M 120.67395015179393 96.31383870115 l 11.051852735899748 -1.970543197431867 a32.2261520294783,32.2261520294783 0 0,0 0.09267034911554674,0.5469456462476423 l -11.084134946535517 1.7800117628683874" fill="#ff900d" stroke="none" /><path d="M 120.83666639777658 97.38593545837742 l 8.483302967821029 -1.0642730012891528 a29.54980153366814,29.54980153366814 0 0,0 0.05897246433762089,0.5052400605676864 l -8.500365785162238 0.9180892023966137" fill="#ff6c09" stroke="none" /><path d="M 120.87857604477298 97.74499172005257 l 38.03287679114418 -4.1077730535996935 a59.25406535873323,59.25406535873323 0 0,0 0.10079645379176357,1.0150065340369063 l -38.09795037061817 3.4524909888583517" fill="#37ff2e" stroke="none" /><path d="M 120.98425023603335 99.18683210126433 l 5.757988224364769 -0.22312978222644841 a26.762309892017242,26.762309892017242 0 0,0 0.013876009865571253,0.46047721370709893 l -5.760975928685985 0.12398242109435034" fill="#ff4506" stroke="none" /><line stroke="#e1ed5e" stroke-width="0.3" x1="184.98032266829074" x2="189.97916517819016" y1="98.17113171792111" y2="98.06355123074" /><path d="M 185.9800911702706 98.14961562048488 a86.0,86.0 0 0,1 -9.607161424134198,41.387399972396054" fill="none" id="id40" stroke="none" /><text fill="#e1ed5e" style="font-size:6.75px; font-family:Arial;" text-anchor="middle"><textPath startOffset="21.466115282336823" xlink:href="#id40">April</textPath></text><path d="M 120.99824983174949 100.27111621757518 l 9.151352090597138 0.11815651229894647 a30.15211484015991,30.15211484015991 0 0,0 -0.011167679006724773,0.5189181608904669 l -9.147962348905406 -0.2756644889795282" fill="#ff740a" stroke="none" /><path d="M 120.92983693683757 101.71520430193887 l 5.536704007790092 0.4537339952233118 a26.555264692910697,26.555264692910697 0 0,0 -0.04125601102739707,0.4552566438793748 l -5.52807340048562 -0.5489720276512575" fill="#ff4206" stroke="none" /><path d="M 120.81339534386255 102.79330883721812 l 62.44018603158764 8.379926511654341 a84.0,84.0 0 0,0 -0.20466379593359463,1.4314181120783627 l -62.28668818463745 -9.453490095713112" fill="#4dd2ff" stroke="none" /><path d="M 120.49622156327973 104.57218783832717 l 5.9556236282835915 1.3285487687973094 a27.102007426482096,27.102007426482096 0 0,0 -0.10549060710412385,0.45445077445887244 l -5.931872455248914 -1.4308682006047462" fill="#ff4a06" stroke="none" /><path d="M 119.9155931802556 106.66101706037122 l 5.867660930869885 1.962511947861368 a27.187155884989117,27.187155884989117 0 0,0 -0.15225994345954397,0.44253866699312616 l -5.83301015646711 -2.0632233179437947" fill="#ff4b07" stroke="none" /><path d="M 119.54520255179757 107.68017299344265 l 5.316404097196116 2.0890498863496427 a26.712117116476264,26.712117116476264 0 0,0 -0.17184462809935075,0.4265042740672044 l -5.279656854839375 -2.180253528259661" fill="#ff4506" stroke="none" /><path d="M 119.12269723197855 108.67885076344098 l 5.429192988395963 2.464043389936239 a26.962184694617935,26.962184694617935 0 0,0 -0.19544423314159284,0.4209694906517653 l -5.3859741384145385 -2.557132947866835" fill="#ff4806" stroke="none" /><line stroke="#e1ed5e" stroke-width="0.3" x1="174.80103733775053" x2="179.2010983576182" y1="140.37084112569926" y2="142.7455964860345" /><path d="M 175.68104954172406 140.8457921977663 a86.0,86.0 0 0,1 -30.038265399797805,32.042727171017184" fill="none" id="id41" stroke="none" /><text fill="#e1ed5e" style="font-size:6.75px; font-family:Arial;" text-anchor="middle"><textPath startOffset="22.206326154141568" xlink:href="#id41">May</textPath></text><path d="M 117.94076556474637 110.91462005526583 l 10.228602473241136 6.2227728961106665 a32.97276956565039,32.97276956565039 0 0,0 -0.2991656443017381,0.48235027502930156 l -10.119972189271436 -6.397919502505239" fill="#ff9a0e" stroke="none" /><path d="M 117.35343817320211 111.8261652097733 l 5.21277146621789 3.5524428038406195 a27.30815632602541,27.30815632602541 0 0,0 -0.2680608843867327,0.38616169688457747 l -5.150849674669019 -3.6416457629122143" fill="#ff4d07" stroke="none" /><path d="M 116.93607887273984 112.41649034213513 l 4.358771170565292 3.1955826699657797 a26.404686366287756,26.404686366287756 0 0,0 -0.27189123491235706,0.3642427409956928 l -4.303118668957845 -3.270138290470787" fill="#ff4006" stroke="none" /><path d="M 116.498646956653 112.99209946851258 l 4.289145895359449 3.377550307845186 a26.459360639644895,26.459360639644895 0 0,0 -0.2848565475764063,0.3554023417980451 l -4.2303714357281885 -3.450880483221484" fill="#ff4106" stroke="none" /><path d="M 116.0416608686014 113.55231037782055 l 4.902258894813669 4.141524661264001 a27.417504872739688,27.417504872739688 0 0,0 -0.30767335200670076,0.3578936175937277 l -4.8302430332361865 -4.2252953780192595" fill="#ff4e07" stroke="none" /><path d="M 115.56566222782051 114.09645910891815 l 22.415403984976205 20.29967122885083 a51.241147263440936,51.241147263440936 0 0,0 -0.5977001466952342,0.6486854620250376 l -22.06265743028525 -20.6825079456772" fill="#8aff24" stroke="none" /><path d="M 114.0293411484842 115.62618273729858 l 1.8382710235960034 2.0475059114586895 a23.751639659121626,23.751639659121626 0 0,0 -0.30657445526724214,0.2705163119726388 l -1.8027542154221734 -2.0788453652036174" fill="#ff1b02" stroke="none" /><path d="M 111.7513745106137 117.40417183066458 l 5.236282343928941 7.755106229088688 a30.357367440139996,30.357367440139996 0 0,0 -0.43559251854103753,0.28868696915494924 l -5.10201512664794 -7.844091219334955" fill="#ff770a" stroke="none" /><line stroke="#e1ed5e" stroke-width="0.3" x1="143.8653032363475" x2="146.44561519142675" y1="172.8068346515853" y2="177.08958963109032" /><path d="M 144.38136562736335 173.6633856474863 a86.0,86.0 0 0,1 -40.68145358897372,12.25698825130547" fill="none" id="id42" stroke="none" /><text fill="#e1ed5e" style="font-size:6.75px; font-family:Arial;" text-anchor="middle"><textPath startOffset="21.466115282336833" xlink:href="#id42">June</textPath></text><path d="M 109.57404056367764 118.69057910512821 l 3.005874705277327 5.868111648934675 a27.593179587133122,27.593179587133122 0 0,0 -0.4246013408661852,0.2129039268895501 l -2.9044194567283816 -5.918983416733527" fill="#ff5107" stroke="none" /><path d="M 108.92500713936063 119.00905698771935 l 5.133761522450022 10.934217061993783 a33.07942921367497,33.07942921367497 0 0,0 -0.5175071989732578,0.23756217292338125 l -4.944786327709344 -11.020966305251235" fill="#ff9b0e" stroke="none" /><path d="M 107.2578585660854 119.70592522655815 l 3.745765017902006 10.17018514303267 a31.838054318598928,31.838054318598928 0 0,0 -0.5158984339155815,0.18498282361502724 l -3.57014702335669 -10.233155507687657" fill="#ff8b0c" stroke="none" /><path d="M 104.83641907484287 120.43548508189849 l 1.877416017543109 7.932709392075582 a29.151844527593223,29.151844527593223 0 0,0 -0.48930656209564544,0.11136458048757304 l -1.740589306054601 -7.963850706140839" fill="#ff6609" stroke="none" /><path d="M 104.48393922423573 120.51570834832081 l 3.637726391367329 16.643966379584946 a38.03686209791006,38.03686209791006 0 0,0 -0.6408460281273257,0.13429551602330184 l -3.350688901810625 -16.704117876334788" fill="#ffdb14" stroke="none" /><line stroke="#e1ed5e" stroke-width="0.3" x1="102.19456741930631" x2="102.32365962044197" y1="184.97166512339345" y2="189.96999836594603" /><path d="M 102.22038585953345 185.97133177190398 a86.0,86.0 0 0,1 -42.740103519485714,-10.115201625700543" fill="none" id="id43" stroke="none" /><text fill="#e1ed5e" style="font-size:6.75px; font-family:Arial;" text-anchor="middle"><textPath startOffset="22.20632615414155" xlink:href="#id43">July</textPath></text><path d="M 99.81925306533755 120.99922214144158 l -0.08249058767426876 9.58377622494707 a30.58413122963764,30.58413122963764 0 0,0 -0.5263970417144557,-0.009062402451122992 l 0.24744731928139235 -9.580936345216786" fill="#ff7a0b" stroke="none" /><path d="M 97.2962882734958 120.8252237178851 l -1.7782667717038065 13.697023609353206 a34.81197626940204,34.81197626940204 0 0,0 -0.5935796850645435,-0.08226473563953347 l 2.0137750479551806 -13.664384308221068" fill="#ffb210" stroke="none" /><path d="M 96.22490169976321 120.6578951692458 l -1.650722677200955 9.032998165100796 a30.18258902530979,30.18258902530979 0 0,0 -0.5102760276218054,-0.09779561516089794 l 1.8059663193944555 -9.00324535159143" fill="#ff740a" stroke="none" /><path d="M 90.10565033884886 118.52300852407294 l -5.821828640127027 10.898925671706925 a33.356385778713594,33.356385778713594 0 0,0 -0.5041217106987118,-0.27488735154828525 l 6.008573162694381 -10.797097668398875" fill="#ff9f0e" stroke="none" /><line stroke="#e1ed5e" stroke-width="0.3" x1="58.666819895761336" x2="56.23545636021788" y1="174.27360380694188" y2="178.64263932499728" /><path d="M 58.180547188652646 175.14741091055294 a86.0,86.0 0 0,1 -31.652253787137756,-30.449443065178592" fill="none" id="id44" stroke="none" /><text fill="#e1ed5e" style="font-size:6.75px; font-family:Arial;" text-anchor="middle"><textPath startOffset="22.20632615414155" xlink:href="#id44">August</textPath></text><path d="M 87.65650970185807 116.9893568818739 l -7.499448749906122 10.322105672870931 a33.75882428260468,33.75882428260468 0 0,0 -0.46718198654874515,-0.3456100649048719 l 7.676015706873431 -10.191485659226291" fill="#ffa40f" stroke="none" /><path d="M 85.70375840098266 115.38237550388516 l -4.586089652358733 4.934510419291819 a27.73658751725021,27.73658751725021 0 0,0 -0.34692417224117184,-0.3280384587690569 l 4.670349658990721 -4.854837323776834" fill="#ff5307" stroke="none" /><path d="M 83.95833913139862 113.55231037782056 l -11.075955606340878 9.35718497838936 a35.49943803440083,35.49943803440083 0 0,0 -0.39033153541307647,-0.4701794794312428 l 11.235383141647494 -9.165144241844356" fill="#ffba11" stroke="none" /><line stroke="#e1ed5e" stroke-width="0.3" x1="26.63291911575756" x2="22.317208475507996" y1="142.92168965132927" y2="145.44649492493687" /><path d="M 25.769776987707644 143.4266507060508 a86.0,86.0 0 0,1 -11.730757126820373,-40.83630448921669" fill="none" id="id45" stroke="none" /><text fill="#e1ed5e" style="font-size:6.75px; font-family:Arial;" text-anchor="middle"><textPath startOffset="21.46611528233685" xlink:href="#id45">September</textPath></text><path d="M 81.87401531095188 110.60418214915194 l -7.094222976507194 4.15030873853903 a29.219066994835607,29.219066994835607 0 0,0 -0.25023766063386393,-0.43631045391033196 l 7.164612633293435 -4.02757843877039" fill="#ff6709" stroke="none" /><path d="M 81.18737489456691 109.33194174019688 l -7.142957487143056 3.5432409219419023 a28.973480914510095,28.973480914510095 0 0,0 -0.21777950509004823,-0.4486902846441773 l 7.202890248847823 -3.4197616813324405" fill="#ff6409" stroke="none" /><path d="M 80.20201598880116 107.00284435728193 l -7.7342520588357875 2.7357211399593737 a29.203829902260665,29.203829902260665 0 0,0 -0.16355419848000832,-0.4753650588061791 l 7.780197088259024 -2.602183378063899" fill="#ff6709" stroke="none" /><path d="M 79.35854240842038 103.8639653848113 l -7.387156819931788 1.3828344300662714 a28.515471837698644,28.515471837698644 0 0,0 -0.08616229221326911,-0.48324389243009797 l 7.409865554484246 -1.2554717869029597" fill="#ff5e08" stroke="none" /><path d="M 79.10278846688536 102.07522291339032 l -7.53487642583132 0.7482600338170146 a28.57193871018225,28.57193871018225 0 0,0 -0.0443890969317312,-0.48982998575787107 l 7.546640119040126 -0.6184486595105776" fill="#ff5e08" stroke="none" /><line stroke="#e1ed5e" stroke-width="0.3" x1="15.007084014347285" x2="10.007500721073583" y1="101.09737516637583" y2="101.16192664675087" /><path d="M 14.007167355692545 101.11028546245083 a86.0,86.0 0 0,1 10.666146001902534,-42.60595125391555" fill="none" id="id46" stroke="none" /><text fill="#e1ed5e" style="font-size:6.75px; font-family:Arial;" text-anchor="middle"><textPath startOffset="22.20632615414155" xlink:href="#id46">October</textPath></text><path d="M 79.01574976396665 99.18683210126434 l -9.006428617858473 -0.34901121326320206 a30.013188407858983,30.013188407858983 0 0,0 0.02444844566984038,-0.5160680470909017 l 8.999086563955135 0.5039903669771127" fill="#ff720a" stroke="none" /><path d="M 79.71946130924805 94.55025226153421 l -10.892613305826915 -2.927042305660352 a32.279033703708976,32.279033703708976 0 0,0 0.14881130932635003,-0.5353534559790868 l 10.840615225934204 3.114107065058381" fill="#ff900d" stroke="none" /><path d="M 79.81627453868168 94.20196356495316 l -11.494463521904006 -3.301933452723614 a32.959325072201906,32.959325072201906 0 0,0 0.16133448821907712,-0.5439396906044371 l 11.435923136573221 3.4993025300745906" fill="#ff990e" stroke="none" /><path d="M 80.52162464483688 92.15188598940014 l -11.939923466723934 -4.810764703733235 a33.872654327135116,33.872654327135116 0 0,0 0.2225567478449986,-0.5389388179495488 l 11.855345031992737 5.015578092136095" fill="#ffa50f" stroke="none" /><path d="M 80.803312248108 91.48605970444005 l -16.725853992820642 -7.4180985869863285 a39.297059283813965,39.297059283813965 0 0,0 0.27956617176931514,-0.6159870015933278 l 16.595685504087974 7.7049075974217285" fill="#ffea16" stroke="none" /><path d="M 81.6062741919709 89.86733742301443 l -18.174955377726892 -10.012147191728133 a41.7502311883794,41.7502311883794 0 0,0 0.3521778299664692,-0.6264850624520646 l 17.999919906467994 10.323515764114983" fill="#f6ff19" stroke="none" /><line stroke="#e1ed5e" stroke-width="0.3" x1="26.266209847984243" x2="21.928928074336255" y1="57.71137044288968" y2="55.22380399835378" /><path d="M 25.398753493254645 57.2138571539825 a86.0,86.0 0 0,1 29.58750427330803,-30.4925239686951" fill="none" id="id47" stroke="none" /><text fill="#e1ed5e" style="font-size:6.75px; font-family:Arial;" text-anchor="middle"><textPath startOffset="21.46611528233685" xlink:href="#id47">November</textPath></text><path d="M 82.95767976084542 87.72973835380427 l -9.716370147019887 -6.995667390482835 a32.97276956565039,32.97276956565039 0 0,0 0.3355958869120044,-0.45775241259773103 l 9.59451164759425 7.161882246752069" fill="#ff9a0e" stroke="none" /><path d="M 84.31358615837235 86.03803664274999 l -9.953616408690337 -8.859388064941996 a34.32528560656717,34.32528560656717 0 0,0 0.39663089714781247,-0.4379697430693381 l 9.799641870926479 9.02941059528089" fill="#ffab0f" stroke="none" /><path d="M 86.37877921826538 84.01681056812373 l -5.355547205452031 -6.2842183434012755 a29.25671157649134,29.25671157649134 0 0,0 0.3861084336564628,-0.3233547093031725 l 5.246581234836458 6.375474210098263" fill="#ff6809" stroke="none" /><path d="M 87.80319425747018 82.90503203632743 l -5.082334979768613 -7.123369470158998 a29.750572635832064,29.750572635832064 0 0,0 0.4194389589059209,-0.29384379529161214 l 4.958964881279032 7.209798108214553" fill="#ff6f0a" stroke="none" /><path d="M 88.39885842347998 82.49532879139004 l -7.341552425915678 -11.077484101782348 a34.2894336240379,34.2894336240379 0 0,0 0.49480138358401876,-0.3218325836789564 l 7.149784016547369 11.20221560962084" fill="#ffab0f" stroke="none" /><line stroke="#e1ed5e" stroke-width="0.3" x1="56.76296977257108" x2="54.21961505331056" y1="26.818313649435495" y2="22.513508569990535" /><path d="M 56.25429882871898 25.957352633546506 a86.0,86.0 0 0,1 42.26535254187918,-11.944610805530505" fill="none" id="id48" stroke="none" /><text fill="#e1ed5e" style="font-size:6.75px; font-family:Arial;" text-anchor="middle"><textPath startOffset="22.20632615414155" xlink:href="#id48">December</textPath></text><path d="M 90.58718382345135 81.22770947309562 l -8.767743184722965 -17.485800130567856 a40.560841667970806,40.560841667970806 0 0,0 0.6268170740713016,-0.307576416010121 l 8.465454843641238 17.634131706712807" fill="#fffa17" stroke="none" /><path d="M 93.25333710446033 80.11325718540243 l -3.180162401727443 -9.373978331364038 a30.898732376332,30.898732376332 0 0,0 0.5051459807490188,-0.16653868775179292 l 3.018333598736015 9.427330743375064" fill="#ff7e0b" stroke="none" /><path d="M 94.98787191387505 79.60689891045804 l -9.072444570241109 -36.913517785463206 a59.01206447666064,59.01206447666064 0 0,0 0.9885260222061397,-0.23395217146135674 l 8.435694861072436 37.064215869065436" fill="#3aff2e" stroke="none" /><path d="M 97.83486435360386 79.11191278185805 l -2.1006642652709737 -20.266101323513038 a41.37468167138528,41.37468167138528 0 0,0 0.7090337289605568,-0.0673312960465396 l 1.75150540922018 20.29925816407476" fill="#faff18" stroke="none" /><path d="M 99.63851952072746 79.00311137660856 l -0.36179418851916034 -21.01511068098263 a42.01822475778572,42.01822475778572 0 0,0 0.723274667791691,-0.006225453411644935 l 5.147980334676386e-15 21.018224757785717" fill="#f3ff19" stroke="none" /></svg>