<?xml version="1.0" encoding="utf-8" ?>
<svg baseProfile="full" height="200mm" version="1.1" viewBox="0,0,200,200" width="200mm" xmlns="http://www.w3.org/2000/svg" xmlns:ev="http://www.w3.org/2001/xml-events" xmlns:xlink="http://www.w3.org/1999/xlink"><defs /><rect fill="#1a1a1a" height="200" width="200" x="0" y="0" /><text alignment-baseline="middle" fill="#e1ed5e" style="dominant-baseline: central; font-size:9.0px; font-family:Arial;" text-anchor="middle" x="100.0" y="100.0">2019</text><line stroke="#e1ed5e" stroke-width="0.3" x1="100.0" x2="100.0" y1="15.0" y2="10.0" /><path d="M 100.0 14.0 a86.0,86.0 0 0,1 42.46469731375804,11.215312516191453" fill="none" id="id13" stroke="none" /><text fill="#e1ed5e" style="font-size:6.75px; font-family:Arial;" text-anchor="middle"><textPath startOffset="22.20632615414155" xlink:href="#id13">January</textPath></text><path d="M 100.36148047927253 79.00311137660856 l 0.07202524470806251 -4.183645114810032 a25.184265058830416,25.184265058830416 0 0,0 0.4333772668787556,0.01119285621599874 l -0.14402914678168593 4.181785466451674" fill="#ff2c04" stroke="none" /><path d="M 101.44485096284872 79.0497635885617 l 0.26403651207756973 -3.828510684846225 a24.837604636188022,24.837604636188022 0 0,0 0.4262722087438839,0.033086927503044664 l -0.3298989101837948 3.823398495154716" fill="#ff2703" stroke="none" /><path d="M 102.52436894288641 79.15227682838746 l 0.550062105777695 -4.542736330504629 a25.57591757887959,25.57591757887959 0 0,0 0.43659951223455246,0.056683147177947105 l -0.6281763465200936 4.532594860162544" fill="#ff3104" stroke="none" /><path d="M 103.2404852339499 79.25152402106235 l 0.5309441064113902 -3.3995776072731054 a24.44078908856758,24.44078908856758 0 0,0 0.415110268895796,0.06849675116984033 l -0.5893835814460614 3.38993459316364" fill="#ff2103" stroke="none" /><path d="M 105.36241919743992 79.69619591428918 l 1.9841861351646541 -7.5127521878931205 a28.770356494760875,28.770356494760875 0 0,0 0.47772781130997316,0.1305810571036366 l -2.1132118356983383 7.47748458996319" fill="#ff5e08" stroke="none" /><path d="M 105.71112130821622 79.79150937346287 l 1.0549009059266783 -3.7327092034756904 a24.87890885675818,24.87890885675818 0 0,0 0.41110594026963604,0.12001309723185104 l -1.1189970639197413 3.713997777325136" fill="#ff2803" stroke="none" /><path d="M 106.40334571778207 80.00007090966166 l 2.5031635370455225 -7.818271173990485 a29.209213838318796,29.209213838318796 0 0,0 0.4775249933090159,0.1574324824607088 l -2.637371352596956 7.77402496727054" fill="#ff6409" stroke="none" /><path d="M 107.4271985657038 80.35727306442388 l 1.1921429764771898 -3.1528629197067097 a24.37071942867178,24.37071942867178 0 0,0 0.3911115585015279,0.1517452084159638 l -1.2462376999783848 3.131875007400199" fill="#ff2003" stroke="none" /><path d="M 108.09893153111575 80.62456947434976 l 1.7860981472999746 -4.272961245819511 a25.631235731428905,25.631235731428905 0 0,0 0.40560361625995495,0.17365830089355652 l -1.8593855213502448 4.241583416963163" fill="#ff3204" stroke="none" /><path d="M 108.76106565485865 80.91482961587045 l 3.4208312434021066 -7.451964145420653 a29.19962535854358,29.19962535854358 0 0,0 0.45498826853353563,0.21362309280310732 l -3.54859772323524 7.3919760699775425" fill="#ff6409" stroke="none" /><line stroke="#e1ed5e" stroke-width="0.3" x1="143.23703022742887" x2="145.7803849466894" y1="26.81831364943548" y2="22.513508569990506" /><path d="M 143.74570117128098 25.957352633546492 a86.0,86.0 0 0,1 28.547481713284135,27.462654790039103" fill="none" id="id14" stroke="none" /><text fill="#e1ed5e" style="font-size:6.75px; font-family:Arial;" text-anchor="middle"><textPath startOffset="19.985693538727396" xlink:href="#id14">February</textPath></text><path d="M 113.89432698308785 84.25364557470405 l 2.9607287410780523 -3.3553754831681957 a25.474869753556167,25.474869753556167 0 0,0 0.32630762172046945,0.29296220461699607 l -3.0180473503945118 3.3039142697819046" fill="#ff3004" stroke="none" /><path d="M 115.19652480421416 85.50635884689758 l 5.778291079918836 -5.511028242936956 a28.984990926652227,28.984990926652227 0 0,0 0.3412398537837173,0.3640108837557245 l -5.872298255673017 5.410747942303175" fill="#ff6109" stroke="none" /><path d="M 115.68641384162765 86.03803664274999 l 3.169054115215442 -2.820671307062066 a25.242533512849032,25.242533512849032 0 0,0 0.28609182666509103,0.32705241385104666 l -3.217137805458381 2.7657033370080715" fill="#ff2d04" stroke="none" /><path d="M 116.15771136456269 86.58626213691792 l 2.953277408225168 -2.451738869266958 a24.838342211555346,24.838342211555346 0 0,0 0.27026660236488487,0.33131489781656803 l -2.9950425026664615 2.400539801842287" fill="#ff2703" stroke="none" /><path d="M 116.60985879189232 87.15038557335679 l 8.571632215510409 -6.631132170134123 a31.837194872095065,31.837194872095065 0 0,0 0.33159811972860326,0.4363442560681583 l -8.684506275463125 6.482603138184934" fill="#ff880c" stroke="none" /><path d="M 117.2510076193507 88.02491185347247 l 5.018071009897411 -3.483381608483557 a27.10859919217936,27.10859919217936 0 0,0 0.26279274121524376,0.38561592081229257 l -5.077288216781385 3.3964876644008606" fill="#ff4706" stroke="none" /><path d="M 117.65298651832404 88.62581576622439 l 9.42615538388153 -6.073466823371442 a32.213358309430426,32.213358309430426 0 0,0 0.2963205646487139,0.46870797173674233 l -9.529303544776202 5.910311203920494" fill="#ff8d0d" stroke="none" /><line stroke="#e1ed5e" stroke-width="0.3" x1="172.23445277983987" x2="176.4835382374775" y1="55.19839476539836" y2="52.563006222186495" /><path d="M 173.08426987136738 54.67131705675599 a86.0,86.0 0 0,1 12.851231095245387,41.99856678651699" fill="none" id="id15" stroke="none" /><text fill="#e1ed5e" style="font-size:6.75px; font-family:Arial;" text-anchor="middle"><textPath startOffset="22.20632615414155" xlink:href="#id15">March</textPath></text><path d="M 118.56541770881063 90.18545643968196 l 3.395961906953783 -1.7952634617620928 a24.841292513024644,24.841292513024644 0 0,0 0.19658992779880588,0.3797491671900371 l -3.426361267912705 1.7365415723117108" fill="#ff2703" stroke="none" /><path d="M 118.89224826269711 90.83032412892265 l 10.021528730721107 -4.8641204008973045 a32.139600772698,32.139600772698 0 0,0 0.23728484538114222,0.49978239955284204 l -10.103771769944005 4.690895585703922" fill="#ff8c0c" stroke="none" /><path d="M 119.196687751892 91.48605970444005 l 6.823291461071722 -3.0262041488403657 a28.46426271732131,28.46426271732131 0 0,0 0.1947894757122711,0.4496009662879595 l -6.874371646626674 2.9083040379658036" fill="#ff5a08" stroke="none" /><path d="M 119.47837535516314 92.15188598940014 l 3.558170001365219 -1.4336372172029435 a24.836129485453373,24.836129485453373 0 0,0 0.1563569768547724,0.3979114514246637 l -3.582320528101692 1.3721767608824953" fill="#ff2703" stroke="none" /><path d="M 119.7369772167798 92.82701384747503 l 2.3326673886716867 -0.847758534329328 a23.48194111104607,23.48194111104607 0 0,0 0.1347940789305753,0.38108101270261713 l -2.3469145484120717 0.8074798952000963" fill="#ff1302" stroke="none" /><path d="M 120.18372546131832 94.20196356495316 l 15.216659849927913 -4.3711825350915126 a36.83205525961482,36.83205525961482 0 0,0 0.1698014388743563,0.610866119941542 l -15.289648059368632 4.108605111731019" fill="#ffc912" stroke="none" /><path d="M 120.28053869075195 94.5502522615342 l 3.7118265100102477 -0.9974349516529394 a24.843505239126618,24.843505239126618 0 0,0 0.10742292404343094,0.41394434690791737 l -3.7284457659239814 0.9333941791961716" fill="#ff2703" stroke="none" /><path d="M 120.53481517161879 95.60439243477599 l 7.388350288054661 -1.581523288584728 a28.55572206286952,28.55572206286952 0 0,0 0.09874936389815436,0.4815369684901748 l -7.414478947867812 1.4541106639311419" fill="#ff5b08" stroke="none" /><path d="M 120.87857604477298 97.74499172005257 l 3.8374145680137124 -0.41446320888479427 a24.85973189720775,24.85973189720775 0 0,0 0.042288622768449684,0.4258406601691947 l -3.843980316464391 0.34834701801116463" fill="#ff2703" stroke="none" /><path d="M 120.98425023603335 99.18683210126433 l 15.701520822869094 -0.6084550341742555 a36.71330562547562,36.71330562547562 0 0,0 0.019035509009212546,0.6316958718663835 l -15.709668026333953 0.33808901488287274" fill="#ffc812" stroke="none" /><line stroke="#e1ed5e" stroke-width="0.3" x1="184.98032266829074" x2="189.97916517819016" y1="98.17113171792111" y2="98.06355123074" /><path d="M 185.9800911702706 98.14961562048488 a86.0,86.0 0 0,1 -9.607161424134198,41.387399972396054" fill="none" id="id16" stroke="none" /><text fill="#e1ed5e" style="font-size:6.75px; font-family:Arial;" text-anchor="middle"><textPath startOffset="21.466115282336823" xlink:href="#id16">April</textPath></text><path d="M 120.9764740272857 100.99374915477107 l 8.186018951607029 0.3878082371478532 a29.195199906339635,29.195199906339635 0 0,0 -0.028101977460723182,0.501779685401875 l -8.178130623258776 -0.5286596388851514" fill="#ff6409" stroke="none" /><path d="M 120.41448212921028 104.9243191809786 l 3.9822759613288286 0.9605924743132412 a25.096493590118833,25.096493590118833 0 0,0 -0.10491372324185533,0.41907817289506477 l -3.9651509237919123 -1.0289984866057025" fill="#ff2b04" stroke="none" /><path d="M 119.9155931802556 106.66101706037122 l 3.6576234878963847 1.2233375241590283 a24.856781595738454,24.856781595738454 0 0,0 -0.13920882994763778,0.40460602203670964 l -3.6360238270055163 -1.2861162492850382" fill="#ff2703" stroke="none" /><path d="M 119.12269723197855 108.67885076344098 l 6.789604155642606 3.081467038610018 a28.456149388280746,28.456149388280746 0 0,0 -0.20627372589971596,0.4442952546158589 l -6.735555812903059 -3.1978823605047073" fill="#ff5a08" stroke="none" /><line stroke="#e1ed5e" stroke-width="0.3" x1="174.80103733775053" x2="179.2010983576182" y1="140.37084112569926" y2="142.7455964860345" /><path d="M 175.68104954172406 140.8457921977663 a86.0,86.0 0 0,1 -30.038265399797805,32.042727171017184" fill="none" id="id17" stroke="none" /><text fill="#e1ed5e" style="font-size:6.75px; font-family:Arial;" text-anchor="middle"><textPath startOffset="22.206326154141568" xlink:href="#id17">May</textPath></text><path d="M 118.48025628344425 109.97397251340804 l 3.408294529451471 1.8394894222761464 a24.873008253819588,24.873008253819588 0 0,0 -0.20659235273206908,0.3750251290139992 l -3.376125767267892 -1.897885069687952" fill="#ff2703" stroke="none" /><path d="M 117.94076556474637 110.91462005526583 l 7.003231346482157 4.26055449139698 a29.19741263244161,29.19741263244161 0 0,0 -0.26491140650883344,0.4271215369203827 l -6.928855300305363 -4.380472359682634" fill="#ff6409" stroke="none" /><path d="M 116.498646956653 112.99209946851258 l 0.9005056736160656 0.7091162877972906 a22.14619212082187,22.14619212082187 0 0,0 -0.2384217787957024,0.29746782807202177 l -0.8881659827655093 -0.724511949447565" fill="#ff0000" stroke="none" /><path d="M 114.81725581225074 114.88116024355365 l 5.239599538175044 5.262197084777786 a28.425908798220455,28.425908798220455 0 0,0 -0.34970642341817065,0.34226133876011416 l -5.148243162381079 -5.351608526460472" fill="#ff5908" stroke="none" /><path d="M 114.29624159901734 115.38237550388516 l 2.6210752612610366 2.820207228131376 a24.850143417432534,24.850143417432534 0 0,0 -0.31583402256789467,0.2885068912633744 l -2.572141689226278 -2.8649068859813336" fill="#ff2703" stroke="none" /><path d="M 113.48314897796784 116.09983520530334 l 2.4767383652088673 2.957401093147684 a24.85751917110578,24.85751917110578 0 0,0 -0.3304036252823158,0.2718996898430601 l -2.4254646113818605 -2.9995959018479224" fill="#ff2703" stroke="none" /><path d="M 112.92097659922987 116.55440617244103 l 4.58629243734065 5.875975956636041 a28.453936662178776,28.453936662178776 0 0,0 -0.3886960471259438,0.29803555408643473 l -4.4844676617212125 -5.954050852549847" fill="#ff5a08" stroke="none" /><path d="M 112.34349029814194 116.9893568818739 l 2.291237354996669 3.1536176709256063 a24.898085816308612,24.898085816308612 0 0,0 -0.3488964878387105,0.24892838029662137 l -2.236613539309074 -3.192590313066447" fill="#ff2803" stroke="none" /><path d="M 111.7513745106137 117.40417183066458 l 2.0669981929106163 3.0612922505871873 a24.693777439559796,24.693777439559796 0 0,0 -0.3543266631535063,0.2348283914957451 l -2.013996831017146 -3.096418663174251" fill="#ff2503" stroke="none" /><line stroke="#e1ed5e" stroke-width="0.3" x1="143.8653032363475" x2="146.44561519142675" y1="172.8068346515853" y2="177.08958963109032" /><path d="M 144.38136562736335 173.6633856474863 a86.0,86.0 0 0,1 -40.68145358897372,12.25698825130547" fill="none" id="id18" stroke="none" /><text fill="#e1ed5e" style="font-size:6.75px; font-family:Arial;" text-anchor="middle"><textPath startOffset="21.466115282336833" xlink:href="#id18">June</textPath></text><path d="M 110.5260780823613 118.17145234162733 l 3.788722643143659 6.540574030217066 a28.55867236433882,28.55867236433882 0 0,0 -0.4274978034677817,0.24274440981632917 l -3.675576072754679 -6.604821605828023" fill="#ff5b08" stroke="none" /><path d="M 109.57404056367764 118.69057910512821 l 1.7522797650526545 3.420825652993846 a24.843505239126618,24.843505239126618 0 0,0 -0.38228960178507776,0.19168794253698815 l -1.6931362555848162 -3.450481436440136" fill="#ff2703" stroke="none" /><path d="M 108.92500713936063 119.00905698771935 l 3.2105575058712716 6.8380528596226045 a28.55424691213487,28.55424691213487 0 0,0 -0.44671352225693545,0.20506426815349224 l -3.092375987846917 -6.8923041981101685" fill="#ff5b08" stroke="none" /><path d="M 108.2653958097858 119.30500536409082 l 1.9334146025817514 4.515764294029557 a25.912251946379442,25.912251946379442 0 0,0 -0.4115464558480942,0.17202645192190982 l -1.8553966872361949 -4.548375788971439" fill="#ff3605" stroke="none" /><path d="M 106.57524785965236 119.94407469862006 l 1.9124144772855316 5.8007451587873105 a27.107861616812034,27.107861616812034 0 0,0 -0.44441229213795114,0.1422867818649426 l -1.8122808400566401 -5.83280478731196" fill="#ff4706" stroke="none" /><path d="M 103.7750983002368 120.6578951692458 l 1.1783398206710016 6.448049442220483 a27.554832289410527,27.554832289410527 0 0,0 -0.4673181838470823,0.0812492563797894 l -1.0671726653518694 -6.467377277121279" fill="#ff4d07" stroke="none" /><path d="M 101.98527174616119 120.90594882070398 l 0.46438833329392487 4.890251799305339 a25.912251946379442,25.912251946379442 0 0,0 -0.4444021323143498,0.03834488592273336 l -0.38014188323803316 -4.897520937506736" fill="#ff3605" stroke="none" /><path d="M 101.26447882468166 120.96189622390904 l 0.49350425685872396 8.181066235675601 a29.19593748170696,29.19593748170696 0 0,0 -0.5019086564166819,0.025942944531777357 l -0.3526075320285625 -8.18834898696958" fill="#ff6409" stroke="none" /><line stroke="#e1ed5e" stroke-width="0.3" x1="102.19456741930631" x2="102.32365962044197" y1="184.97166512339345" y2="189.96999836594603" /><path d="M 102.22038585953345 185.97133177190398 a86.0,86.0 0 0,1 -42.740103519485714,-10.115201625700543" fill="none" id="id19" stroke="none" /><text fill="#e1ed5e" style="font-size:6.75px; font-family:Arial;" text-anchor="middle"><textPath startOffset="22.20632615414155" xlink:href="#id19">July</textPath></text><path d="M 100.54218724476979 120.99299961872073 l 0.1337773948782231 5.179739705725454 a26.18146695545279,26.18146695545279 0 0,0 -0.4506208350211297,0.007757846333106455 l -0.04459686996442548 -5.18127502933772" fill="#ff3a05" stroke="none" /><path d="M 99.45781275523022 120.99299961872073 l -0.10570794576071126 4.092916029392454 a25.09428086401686,25.09428086401686 0 0,0 -0.43171680788236877,-0.01486919976872282 l 0.17614510531772312 -4.090490031197637" fill="#ff2b04" stroke="none" /><path d="M 98.73552117531835 120.96189622390904 l -0.4489591911973347 7.442620462243038 a28.456149388280746,28.456149388280746 0 0,0 -0.48868319782151937,-0.03370245447516388 l 0.5770051497977841 -7.43378966325159" fill="#ff5a08" stroke="none" /><path d="M 98.01472825383883 120.90594882070398 l -0.4946502757337958 5.208925865506319 a26.232359655798163,26.232359655798163 0 0,0 -0.44915721173064427,-0.04655698148891526 l 0.5842400840700337 -5.199639515561643" fill="#ff3b05" stroke="none" /><path d="M 97.2962882734958 120.8252237178851 l -0.6875211461648553 5.295602167680903 a26.340045659427503,26.340045659427503 0 0,0 -0.4491246313083056,-0.062244581466367424 l 0.7785743686599913 -5.282983020721931" fill="#ff3c05" stroke="none" /><path d="M 96.22490169976321 120.6578951692458 l -1.4325175450128784 7.838947470884446 a28.968764268571093,28.968764268571093 0 0,0 -0.4897547371990972,-0.09386266101030317 l 1.5672398967836707 -7.813127611525675" fill="#ff6108" stroke="none" /><path d="M 95.51606077576429 120.51570834832081 l -0.8942155446424067 4.091372428792329 a25.187952935667038,25.187952935667038 0 0,0 -0.42277361370778754,-0.09622189804717639 l 0.9645093077430563 -4.075373797167466" fill="#ff2c04" stroke="none" /><path d="M 94.81253420990036 120.34920634021253 l -1.4723377995596272 5.775634365225923 a26.960346543347185,26.960346543347185 0 0,0 -0.4487094658101946,-0.11850824817734407 l 1.5715377081813107 -5.749434767744998" fill="#ff4506" stroke="none" /><path d="M 93.76903079525671 120.05430185196036 l -2.243849227520914 7.221802618561712 a28.562360241175437,28.562360241175437 0 0,0 -0.46825766499332777,-0.14992131724117835 l 2.3678282376051825 -7.182108454660828" fill="#ff5b08" stroke="none" /><path d="M 93.08242187328487 119.8279376855182 l -3.685757543134172 10.564531336040892 a32.189018322308726,32.189018322308726 0 0,0 -0.5215853951244283,-0.18702196557213047 l 3.867062498888327 -10.499521829428803" fill="#ff8d0d" stroke="none" /><path d="M 92.40401165467489 119.57807347666478 l -1.3499631573147015 3.4794258078296703 a24.732131358660656,24.732131358660656 0 0,0 -0.3955715079970647,-0.15740606669755586 l 1.4096557413536244 -3.455672896726048" fill="#ff2503" stroke="none" /><path d="M 91.40352486487194 119.15986991738527 l -3.0947914348204364 6.8976877592881465 a28.560147515073464,28.560147515073464 0 0,0 -0.44680583353834474,-0.20510664373520165 l 3.2130652641262003 -6.84339404521887" fill="#ff5b08" stroke="none" /><path d="M 90.7491055286396 118.85261126421891 l -2.014477985919374 4.105351162143322 a25.572967277410292,25.572967277410292 0 0,0 -0.3935144973643715,-0.19731633820545505 l 2.0848463909665047 -4.070066983028565" fill="#ff3104" stroke="none" /><line stroke="#e1ed5e" stroke-width="0.3" x1="58.666819895761336" x2="56.23545636021788" y1="174.27360380694188" y2="178.64263932499728" /><path d="M 58.180547188652646 175.14741091055294 a86.0,86.0 0 0,1 -31.652253787137756,-30.449443065178592" fill="none" id="id20" stroke="none" /><text fill="#e1ed5e" style="font-size:6.75px; font-family:Arial;" text-anchor="middle"><textPath startOffset="22.20632615414155" xlink:href="#id20">August</textPath></text><path d="M 89.7882731507175 118.34994917583269 l -1.8004871082385345 3.2353829489906984 a24.70262834396769,24.70262834396769 0 0,0 -0.3697762704863514,-0.20996861694999988 l 1.8559121456460932 -3.2039111662460655" fill="#ff2503" stroke="none" /><path d="M 88.8546689885994 117.79835938074946 l -2.6501395872100466 4.2320983319442895 a25.99338523678511,25.99338523678511 0 0,0 -0.37717416705015533,-0.24073039878947844 l 2.7225955563071254 -4.185853504331007" fill="#ff3705" stroke="none" /><path d="M 87.07902340077011 116.55440617244103 l -4.633489588882648 5.9364451333122865 a28.530644500380497,28.530644500380497 0 0,0 -0.38454215017987686,-0.30550354093864796 l 4.734989231779883 -5.855807678368508" fill="#ff5b08" stroke="none" /><path d="M 86.51685102203217 116.09983520530335 l -2.964509018395316 3.5398338132130975 a25.617221799449744,25.617221799449744 0 0,0 -0.3356277195814973,-0.28602922391523233 l 3.0250022145538695 -3.488280199074914" fill="#ff3204" stroke="none" /><path d="M 85.97065885151581 115.62618273729859 l -4.745157943917442 5.285259255172465 a28.102850787332436,28.102850787332436 0 0,0 -0.35717445411451365,-0.32627039530903434 l 4.83543194749881 -5.202796093276852" fill="#ff5507" stroke="none" /><path d="M 85.18274418774928 114.88116024355367 l -7.811520566945505 7.84521039357515 a32.07100626353685,32.07100626353685 0 0,0 -0.38784441450132484,-0.39288434423335356 l 7.945405606502366 -7.709585555361129" fill="#ff8b0c" stroke="none" /><path d="M 84.67929136418377 114.36230785411684 l -4.934410754215356 4.625734227790833 a27.763566118363286,27.763566118363286 0 0,0 -0.3238469165495792,-0.3514718673717553 l 5.013304078760664 -4.5401111056177355" fill="#ff5007" stroke="none" /><path d="M 84.19399662182784 113.82643327865904 l -3.014456419018026 2.636920893395256 a25.005034244570627,25.005034244570627 0 0,0 -0.28060112467486914,-0.3264025010803348 l 3.059400053263674 -2.584641293153393" fill="#ff2904" stroke="none" /><path d="M 83.50135304334701 112.99209946851258 l -6.177213951574812 4.864336954902914 a28.862553415676402,28.862553415676402 0 0,0 -0.3040095263441416,-0.3929732936963613 l 6.260030295137022 -4.7572856670933" fill="#ff5f08" stroke="none" /><path d="M 83.06392112726016 112.41649034213515 l -3.7236967889721253 2.729985232398267 a25.617221799449744,25.617221799449744 0 0,0 -0.25766070986856615,-0.35786819036490847 l 3.770137291216299 -2.66548343658222" fill="#ff3204" stroke="none" /><path d="M 82.44556493220864 111.52570212397912 l -10.802096905263875 7.092324575734264 a33.92232043552069,33.92232043552069 0 0,0 -0.31627739829716234,-0.490869545757047 l 10.922579166938084 -6.905333430055769" fill="#ffa40f" stroke="none" /><line stroke="#e1ed5e" stroke-width="0.3" x1="26.63291911575756" x2="22.317208475507996" y1="142.92168965132927" y2="145.44649492493687" /><path d="M 25.769776987707644 143.4266507060508 a86.0,86.0 0 0,1 -11.730757126820373,-40.83630448921669" fill="none" id="id21" stroke="none" /><text fill="#e1ed5e" style="font-size:6.75px; font-family:Arial;" text-anchor="middle"><textPath startOffset="21.46611528233685" xlink:href="#id21">September</textPath></text><path d="M 81.87401531095188 110.60418214915194 l -7.155747862959703 4.186302430128237 a29.290347128724463,29.290347128724463 0 0,0 -0.2508481172907164,-0.437374836547099 l 7.226747976402796 -4.06250774772283" fill="#ff6509" stroke="none" /><path d="M 80.73074385275274 108.34839909993369 l -5.414296640331725 2.3457422981725515 a26.900602938593924,26.900602938593924 0 0,0 -0.18042492996363071,-0.42647123777131773 l 5.453872551487665 -2.252196534735074" fill="#ff4406" stroke="none" /><path d="M 80.45479744820244 107.68017299344265 l -4.160063014595562 1.6346724231199146 a25.4697067259849,25.4697067259849 0 0,0 -0.15682756079740592,-0.40942727382683386 l 4.1875848549864765 -1.5628215824599228" fill="#ff3004" stroke="none" /><path d="M 80.32549172779594 107.34259656027581 l -4.947707518432865 1.8465020677249244 a26.281039630041562,26.281039630041562 0 0,0 -0.15452718047001743,-0.4251924338702934 l 4.978758959908107 -1.7610618368485138" fill="#ff3b05" stroke="none" /><path d="M 79.97269907076064 106.31721596034903 l -4.762096609176975 1.502109186380481 a25.99338523678511,25.99338523678511 0 0,0 -0.1309240119041078,-0.42786724611525784 l 4.787247393587213 -1.4199149677131753" fill="#ff3705" stroke="none" /><path d="M 79.76711848015287 105.62410040840567 l -5.265784185285974 1.4637212676796592 a26.465433471872622,26.465433471872622 0 0,0 -0.11822729640215293,-0.43996775154620515 l 5.2901995580299 -1.372862582957915" fill="#ff3e05" stroke="none" /><path d="M 79.4281124754447 104.21870165774334 l -4.8121092634855085 0.9868250204497099 a25.912251946379442,25.912251946379442 0 0,0 -0.08584367165052549,-0.43771503232070436 l 4.828382868111701 -0.9038462610610513" fill="#ff3605" stroke="none" /><path d="M 79.29508885075956 103.50808413554451 l -8.813798154731398 1.4933435481870674 a29.939413451969795,29.939413451969795 0 0,0 -0.08171784069137526,-0.5088570719909715 l 8.838197749784063 -1.3414072465028817" fill="#ff6e0a" stroke="none" /><path d="M 79.18660465613746 102.79330883721812 l -6.6384046051963645 0.890922117336924 a27.69792191067143,27.69792191067143 0 0,0 -0.05935069918947005,-0.4730834682138866 l 6.652756813632682 -0.7765208948356287" fill="#ff4f07" stroke="none" /><path d="M 79.10278846688536 102.07522291339032 l -5.211152674065936 0.5174998308870068 a26.236785108002106,26.236785108002106 0 0,0 -0.04076122412096125,-0.4497967115967897 l 5.219288494463972 -0.42772173074165126" fill="#ff3b05" stroke="none" /><path d="M 79.04373962182676 101.35467743843564 l -15.69971435461342 1.014878057548401 a36.73248258502605,36.73248258502605 0 0,0 -0.03535702447636055,-0.6313234235310421 l 15.714857729977313 -0.7444829176819214" fill="#ffc812" stroke="none" /><path d="M 79.0095281055655 100.63252640178507 l -3.3913072896235574 0.10219357659233205 a24.392846689691506,24.392846689691506 0 0,0 -0.009034572975554473,-0.4198011055011692 l 3.392563925284119 -0.04380265530103401" fill="#ff2103" stroke="none" /><line stroke="#e1ed5e" stroke-width="0.3" x1="15.007084014347285" x2="10.007500721073583" y1="101.09737516637583" y2="101.16192664675087" /><path d="M 14.007167355692545 101.11028546245083 a86.0,86.0 0 0,1 10.666146001902534,-42.60595125391555" fill="none" id="id22" stroke="none" /><text fill="#e1ed5e" style="font-size:6.75px; font-family:Arial;" text-anchor="middle"><textPath startOffset="22.20632615414155" xlink:href="#id22">October</textPath></text><path d="M 79.00019446554 99.90962569577889 l -6.121818858608602 -0.026345725869061566 a27.121875548791195,27.121875548791195 0 0,0 0.006027504768591102,-0.4668368868706788 l 6.1204583467222955 0.13171887080021236" fill="#ff4706" stroke="none" /><path d="M 79.05617556472873 98.46500227214037 l -7.8783009905200005 -0.5774100216136512 a28.899432184042617,28.899432184042617 0 0,0 0.04063193583606177,-0.49581253411943715 l 7.8671945708644415 0.7129364729408665" fill="#ff6008" stroke="none" /><path d="M 79.12142395522702 97.74499172005258 l -3.8132153169637513 -0.4118495482898769 a24.835391910086052,24.835391910086052 0 0,0 0.04956392895091572,-0.42463347507011756 l 3.8055610350092466 0.4774267616848562" fill="#ff2703" stroke="none" /><path d="M 79.21141760316559 97.0276538004421 l -4.052331521480923 -0.5794013255592001 a25.093543288649535,25.093543288649535 0 0,0 0.06481794457785657,-0.42706926879003904 l 4.041757683463764 0.6490697067413307" fill="#ff2b04" stroke="none" /><path d="M 79.54389044137918 95.25157060432595 l -4.792211581900167 -1.1124049898429749 a25.919627700052683,25.919627700052683 0 0,0 0.10462544087693733,-0.43373999827089027 l 4.772353340762415 1.1947302197732619" fill="#ff3605" stroke="none" /><path d="M 79.62865764111835 94.90015583598534 l -7.514846647380457 -1.8812970762036838 a28.746754083006497,28.746754083006497 0 0,0 0.12430051035996234,-0.4789805717862746 l 7.481349805150188 2.0103740735388222" fill="#ff5e08" stroke="none" /><path d="M 79.81627453868168 94.20196356495316 l -3.6863093976065784 -1.0589400970172784 a24.835391910086052,24.835391910086052 0 0,0 0.1215681824417365,-0.40986747641278864 l 3.667535318053135 1.1222369601766062" fill="#ff2703" stroke="none" /><path d="M 80.02781315780177 93.51064311812611 l -9.217392791891987 -2.994912466000923 a30.69174032664052,30.69174032664052 0 0,0 0.1675808573669823,-0.501045433433143 l 9.164474640753232 3.153131002356388" fill="#ff780b" stroke="none" /><path d="M 80.2630227832202 92.82701384747504 l -4.6722669241150605 -1.6980364105140164 a25.971257975765383,25.971257975765383 0 0,0 0.15631656376082154,-0.41885067517304364 l 4.642345771852611 1.7782102227164016" fill="#ff3705" stroke="none" /><path d="M 80.52162464483688 92.15188598940014 l -2.955449799249713 -1.1907926895436884 a24.18632558684072,24.18632558684072 0 0,0 0.15891373356635372,-0.3848222107552011 l 2.9345143787971595 1.2414894707522008" fill="#ff1e03" stroke="none" /><path d="M 80.95270993114464 91.15688171328213 l -28.470251950838055 -13.217933088843381 a52.3889949072177,52.3889949072177 0 0,0 0.3867849711062054,-0.8146677916153111 l 28.238508785890097 13.706043296099223" fill="#7fff26" stroke="none" /><path d="M 81.26839172434947 90.50648371742162 l -5.315860031631078 -2.6941735607293777 a26.95960896797986,26.95960896797986 0 0,0 0.21335393791286889,-0.41213189885316287 l 5.268696660558096 2.7852781818428762" fill="#ff4506" stroke="none" /><path d="M 81.6062741919709 89.86733742301443 l -2.79087615140265 -1.5374267634225025 a24.18632558684072,24.18632558684072 0 0,0 0.20402013156772386,-0.3629290488809396 l 2.7639983785424955 1.5852393222382277" fill="#ff1e03" stroke="none" /><line stroke="#e1ed5e" stroke-width="0.3" x1="26.266209847984243" x2="21.928928074336255" y1="57.71137044288968" y2="55.22380399835378" /><path d="M 25.398753493254645 57.2138571539825 a86.0,86.0 0 0,1 29.58750427330803,-30.4925239686951" fill="none" id="id23" stroke="none" /><text fill="#e1ed5e" style="font-size:6.75px; font-family:Arial;" text-anchor="middle"><textPath startOffset="21.46611528233685" xlink:href="#id23">November</textPath></text><path d="M 82.15384107792192 88.93136811851018 l -9.62144375533215 -5.967458855500862 a32.32178188842709,32.32178188842709 0 0,0 0.29731791909529376,-0.47028554695604585 l 9.517298239990893 6.132192050171123" fill="#ff8e0d" stroke="none" /><path d="M 82.54541684631803 88.32363383020207 l -3.445346507885944 -2.304788779755232 a25.14517356436223,25.14517356436223 0 0,0 0.2437591497246336,-0.35768647392165853 l 3.4051628924925703 2.363753276947304" fill="#ff2b04" stroke="none" /><path d="M 82.95767976084542 87.72973835380427 l -3.968527185585492 -2.857290922470681 a25.890124685359716,25.890124685359716 0 0,0 0.2635089339021464,-0.3594258897052318 l 3.918755639169712 2.925179255847416" fill="#ff3605" stroke="none" /><path d="M 83.39014120810768 87.1503855733568 l -3.7266444288219223 -2.882983209883397 a25.711631446467248,25.711631446467248 0 0,0 0.27382387877495873,-0.34772851879394095 l 3.6764664694529925 2.9467041226303836" fill="#ff3304" stroke="none" /><path d="M 83.6137871275137 86.86637796730984 l -12.206927648262054 -9.783906456009776 a36.643973540947144,36.643973540947144 0 0,0 0.39872396240091407,-0.48878843225151775 l 12.036705193784746 9.992579057869376" fill="#ffc712" stroke="none" /><path d="M 84.31358615837235 86.03803664274999 l -8.891753192882822 -7.914258383983775 a32.903728853245916,32.903728853245916 0 0,0 0.38020471684216434,-0.4198315445078824 l 8.754204835424613 8.066142715761213" fill="#ff960d" stroke="none" /><path d="M 84.80347519578584 85.50635884689758 l -10.810410819571043 -10.310397749163597 a35.938851489785165,35.938851489785165 0 0,0 0.43081396387835397,-0.4439916593931969 l 10.631332591989574 10.494953604106914" fill="#ffbe11" stroke="none" /><path d="M 85.31137513191541 84.99185889309783 l -30.98566404736973 -31.65968376824861 a65.2995141368612,65.2995141368612 0 0,0 0.810077029362834,-0.7792934604238632 l 30.436103774394468 32.18836031543478" fill="#36ff6c" stroke="none" /><path d="M 85.83668400450813 84.49514656593479 l -8.026901606389632 -8.787203009263349 a32.90151612714394,32.90151612714394 0 0,0 0.42143553950646045,-0.3783689884618523 l 7.874455079287201 8.924071006494477" fill="#ff960d" stroke="none" /><path d="M 86.37877921826538 84.01681056812373 l -7.717761528453181 -9.056049121876525 a32.898565825674645,32.898565825674645 0 0,0 0.4341709315923957,-0.36360566912107073 l 7.560733059901675 9.187555948391411" fill="#ff960d" stroke="none" /><path d="M 87.22198572758235 83.33499621200491 l -19.09498940169364 -24.9035620032018 a52.38161915354446,52.38161915354446 0 0,0 0.720256857283293,-0.5424825324151578 l 18.663486390651954 25.22856112512281" fill="#7fff26" stroke="none" /><path d="M 87.80319425747018 82.90503203632743 l -4.5498661988436195 -6.377064499519978 a28.833787976350756,28.833787976350756 0 0,0 0.4065136546497394,-0.2847887936583778 l 4.439421404610219 6.454438135942298" fill="#ff5f08" stroke="none" /><path d="M 88.39885842347998 82.49532879139004 l -5.946102875121115 -8.97192531571428 a31.76343733536264,31.76343733536264 0 0,0 0.4583508993832992,-0.2981241748186271 l 5.790784949953526 9.072948414692442" fill="#ff870c" stroke="none" /><line stroke="#e1ed5e" stroke-width="0.3" x1="56.76296977257108" x2="54.21961505331056" y1="26.818313649435495" y2="22.513508569990535" /><path d="M 56.25429882871898 25.957352633546506 a86.0,86.0 0 0,1 42.26535254187918,-11.944610805530505" fill="none" id="id24" stroke="none" /><text fill="#e1ed5e" style="font-size:6.75px; font-family:Arial;" text-anchor="middle"><textPath startOffset="22.20632615414155" xlink:href="#id24">December</textPath></text><path d="M 89.3179101791058 81.91981866633112 l -32.04626946268261 -54.240544001006626 a84.0,84.0 0 0,0 1.25121307013871,-0.7247833704398112 l 31.107859660078574 54.78413152883649" fill="#4dd2ff" stroke="none" /><path d="M 89.94658935756843 81.56283822128135 l -2.9293365810318663 -5.372172128417134 a27.118925247321897,27.118925247321897 0 0,0 0.411762078473201,-0.21994904209655833 l 2.836429456030361 5.4217998970154415" fill="#ff4706" stroke="none" /><path d="M 90.58718382345135 81.22770947309562 l -4.011535848021115 -8.000338579410801 a29.949739507112334,29.949739507112334 0 0,0 0.46283576264814236,-0.2271114986577938 l 3.873228818362548 8.068205238203424" fill="#ff6e0a" stroke="none" /><path d="M 91.56875222667455 80.76684994638697 l -10.099729668923647 -23.03924892800536 a46.15574547796055,46.15574547796055 0 0,0 0.7303954235058487,-0.3127172025635107 l 9.70165048762749 23.209685658531654" fill="#c4ff1e" stroke="none" /><path d="M 92.23578459929587 80.48803036053334 l -5.486718276491268 -13.788473774374614 a35.84001639056372,35.84001639056372 0 0,0 0.5751756614432126,-0.22315922074992517 l 5.248559450048377 13.88087569901509" fill="#ffbc11" stroke="none" /><path d="M 92.91201910852362 80.23233633223022 l -2.6547876213792936 -7.403934859910916 a28.8655037171457,28.8655037171457 0 0,0 0.46915789906856786,-0.16367997882819602 l 2.5269477182474396 7.448535691911323" fill="#ff6008" stroke="none" /><path d="M 93.25333710446033 80.11325718540243 l -3.052526304056969 -8.997752886646817 a30.501445881870865,30.501445881870865 0 0,0 0.4986509675090377,-0.16439738400369003 l 2.8971925143055217 9.048963994909741" fill="#ff760a" stroke="none" /><path d="M 93.94186890950719 79.89281104454417 l -4.411303884613834 -14.641300992489962 a36.291412515366154,36.291412515366154 0 0,0 0.5996892931174624,-0.17506574922416376 l 4.15862437377295 14.715065070632825" fill="#ffc212" stroke="none" /><path d="M 94.28887869178378 79.79150937346287 l -2.8373404286618937 -10.039774041293715 a31.433003570801382,31.433003570801382 0 0,0 0.5219406996750832,-0.14266610964535575 l 2.664101839763089 10.087126691765366" fill="#ff820c" stroke="none" /><path d="M 94.98787191387505 79.60689891045804 l -3.620245182619901 -14.729876154297155 a36.16823742902301,36.16823742902301 0 0,0 0.6058632958021625,-0.14338826745836764 l 3.3661581998552053 14.790010333896394" fill="#ffc111" stroke="none" /><path d="M 96.40284397218896 79.31037775812273 l -1.2789560546577683 -7.356121733460994 a28.466475443423285,28.466475443423285 0 0,0 0.48348382832541426,-0.07977897432299043 l 1.1521430201934684 7.377046970723611" fill="#ff5a08" stroke="none" /><path d="M 97.11714578562143 79.19881850522333 l -1.014559476487968 -7.320535219024608 a28.39050518058889,28.39050518058889 0 0,0 0.48464656940297596,-0.06292103415818433 l 0.8883981785771348 7.336914576346929" fill="#ff5908" stroke="none" /><path d="M 97.83486435360386 79.11191278185805 l -0.5064615139611891 -4.886073671117205 a25.912251946379442,25.912251946379442 0 0,0 0.44405563695281286,-0.04216843336442717 l 0.4222807499181396 4.8940676489968125" fill="#ff3605" stroke="none" /><path d="M 98.19473922651362 79.07773832637324 l -0.37402915071578147 -4.334850609824652 a25.350957091845693,25.350957091845693 0 0,0 0.43508255452170025,-0.03377077990075849 l 0.2993564068317473 4.340646651913873" fill="#ff2e04" stroke="none" /><path d="M 98.55514903715128 79.0497635885617 l -0.20420582829139708 -2.960970016494563 a23.968003278112743,23.968003278112743 0 0,0 0.41183643791806696,-0.02484309861174347 l 0.1532073415337073 2.964046384486613" fill="#ff1a02" stroke="none" /><path d="M 99.27714615592234 79.0124445844662 l -0.13235042167687827 -3.842701857326385 a24.844980389861266,24.844980389861266 0 0,0 0.4275387696191148,-0.011042065057027322 l 0.06618501686288439 3.844410714525772" fill="#ff2703" stroke="none" /></svg>