<?xml version="1.0" encoding="utf-8" ?>
<svg baseProfile="full" height="200mm" version="1.1" viewBox="0,0,200,200" width="200mm" xmlns="http://www.w3.org/2000/svg" xmlns:ev="http://www.w3.org/2001/xml-events" xmlns:xlink="http://www.w3.org/1999/xlink"><defs /><rect fill="#1a1a1a" height="200" width="200" x="0" y="0" /><text alignment-baseline="middle" fill="#e1ed5e" style="dominant-baseline: central; font-size:9.0px; font-family:Arial;" text-anchor="middle" x="100.0" y="100.0">2020</text><line stroke="#e1ed5e" stroke-width="0.3" x1="100.0" x2="100.0" y1="15.0" y2="10.0" /><path d="M 100.0 14.0 a86.0,86.0 0 0,1 42.35913384403234,11.155469271406648" fill="none" id="id25" stroke="none" /><text fill="#e1ed5e" style="font-size:6.75px; font-family:Arial;" text-anchor="middle"><textPath startOffset="22.145653131862478" xlink:href="#id25">January</textPath></text><path d="M 100.72087961077811 79.0123766808444 l 0.21999850442677388 -6.405016416961619 a27.40879354040196,27.40879354040196 0 0,0 0.4700924460125232,0.0201877923150807 l -0.32991671104013337 6.400296056220707" fill="#ff5007" stroke="none" /><path d="M 101.44090949804482 79.04949213459386 l 4.322728494134444 -62.8515235962184 a84.0,84.0 0 0,0 1.437724020899066,0.1112889320197854 l -5.401021509808744 62.76805689720356" fill="#4dd2ff" stroke="none" /><path d="M 103.23170211078529 79.25015418208739 l 1.4094388683555756 -9.049608598066236 a30.15870808039135,30.15870808039135 0 0,0 0.5108633782404937,0.08406237448315837 l -1.5645797496491392 9.02408022508741" fill="#ff760a" stroke="none" /><path d="M 103.94208987418118 79.37332000966035 l 2.220692816492229 -11.619603191351823 a32.82990510991925,32.82990510991925 0 0,0 0.5526422302876977,0.1105439237058797 l -2.4198315323108837 11.579769870983084" fill="#ff990e" stroke="none" /><path d="M 104.9986988182912 79.60360301121754 l 2.1959864001755727 -8.960373894912873 a30.22554370248129,30.22554370248129 0 0,0 0.502887856144356,0.12783212650423148 l -2.349479549545323 8.921356536573375" fill="#ff770a" stroke="none" /><path d="M 105.3480935250658 79.69241777938227 l 1.9383253564589882 -7.360137095978468 a28.611092119997643,28.611092119997643 0 0,0 0.4738795228050491,0.12915797118915276 l -2.0643862801987303 7.325778630645173" fill="#ff6108" stroke="none" /><path d="M 106.04205211174951 79.88797359093562 l 9.07087689110203 -30.19399902765673 a52.52710555784759,52.52710555784759 0 0,0 0.8613428965231178,0.2668462311215064 l -9.587860420496778 30.033836208728577" fill="#7bff26" stroke="none" /><path d="M 108.07796709384702 80.6158196554323 l 1.9396262120783154 -4.654396812858419 a26.04237637767431,26.04237637767431 0 0,0 0.41117802695461675,0.17550744955009911 l -2.0192393142033622 4.620414713648919" fill="#ff3d05" stroke="none" /><line stroke="#e1ed5e" stroke-width="0.3" x1="143.13028292997686" x2="145.6673583964461" y1="26.7553504044142" y2="22.446841604673864" /><path d="M 143.63769802327073 25.89364864446614 a86.0,86.0 0 0,1 29.32050498858742,28.57503671076992" fill="none" id="id26" stroke="none" /><text fill="#e1ed5e" style="font-size:6.75px; font-family:Arial;" text-anchor="middle"><textPath startOffset="20.669276256404974" xlink:href="#id26">February</textPath></text><path d="M 115.8921839302757 86.27271002978787 l 5.971722040777147 -5.158231268585162 a28.891059114752167,28.891059114752167 0 0,0 0.3209733884528133,0.378105844521308 l -6.059389992737072 5.0549586416142995" fill="#ff6509" stroke="none" /><line stroke="#e1ed5e" stroke-width="0.3" x1="172.87174338648825" x2="177.1583165268699" y1="56.24261187166439" y2="53.66864786411523" /><path d="M 173.72905801456457 55.72781907015455 a86.0,86.0 0 0,1 12.242430191666344,42.057860355516425" fill="none" id="id27" stroke="none" /><text fill="#e1ed5e" style="font-size:6.75px; font-family:Arial;" text-anchor="middle"><textPath startOffset="22.145653131862474" xlink:href="#id27">March</textPath></text><path d="M 120.05942366710727 93.78553927170692 l 0.7093566452681314 -0.2197605019729978 a21.74261802322155,21.74261802322155 0 0,0 0.10739163591066651,0.3574718287099523 l -0.7130246011824253 0.207551069672322" fill="#ff0000" stroke="none" /><line stroke="#e1ed5e" stroke-width="0.3" x1="184.99686870605535" x2="189.99668451229388" y1="99.2704041080226" y2="99.22748670261217" /><path d="M 185.99683186730306 99.26182062694052 a86.0,86.0 0 0,1 -10.086455211305974,41.156179273409016" fill="none" id="id28" stroke="none" /><text fill="#e1ed5e" style="font-size:6.75px; font-family:Arial;" text-anchor="middle"><textPath startOffset="21.40746469413373" xlink:href="#id28">April</textPath></text><path d="M 120.82617615685814 102.69636545807758 l 7.670346838227529 0.9930799639020896 a28.73436671185242,28.73436671185242 0 0,0 -0.06753326478777862,0.48863706234613147 l -7.6521690568845395 -1.1246053344483067" fill="#ff6309" stroke="none" /><path d="M 120.16314734710363 105.8691983318838 l 14.408801140694417 4.194192015938272 a36.006825013261036,36.006825013261036 0 0,0 -0.1778457331124186,0.5919906043413327 l -14.334679087578369 -4.440920223870328" fill="#ffc312" stroke="none" /><path d="M 118.8641267826498 109.22738970284198 l 3.47886206771446 1.7016857653204758 a24.87275299110037,24.87275299110037 0 0,0 -0.1909044040842239,0.38193668995894176 l -3.449137750418504 -1.7611543114431634" fill="#ff2d04" stroke="none" /><path d="M 118.5362547648365 109.86951160357373 l 8.162856624736568 4.346261377944371 a30.247822243177936,30.247822243177936 0 0,0 -0.24796682205579387,0.45623102349742656 l -8.087044453065436 -4.485747234916403" fill="#ff770b" stroke="none" /><line stroke="#e1ed5e" stroke-width="0.3" x1="174.33088141563837" x2="178.70328620479359" y1="141.23008692659167" y2="143.65538615756765" /><path d="M 175.20536237346943 141.71514677278685 a86.0,86.0 0 0,1 -30.301960400862466,31.63118572779886" fill="none" id="id29" stroke="none" /><text fill="#e1ed5e" style="font-size:6.75px; font-family:Arial;" text-anchor="middle"><textPath startOffset="22.145653131862474" xlink:href="#id29">May</textPath></text><path d="M 117.81537515405839 111.11811171558189 l 3.2823046343835967 2.04840085005652 a24.869039900984262,24.869039900984262 0 0,0 -0.22912948795668023,0.36022961246427754 l -3.2466574548010265 -2.1044441371994718" fill="#ff2d04" stroke="none" /><path d="M 116.57777611688842 112.89097897827484 l 3.908435199079215 3.0392228507629557 a25.95103436081806,25.95103436081806 0 0,0 -0.2764817879090145,0.3493257070756238 l -3.855686980528639 -3.1058685017532603" fill="#ff3c05" stroke="none" /><path d="M 115.16444852881244 114.52719865689866 l 2.4501573169615383 2.3471952848483513 a24.39302174809925,24.39302174809925 0 0,0 -0.2922669634112917,0.29989165177416194 l -2.4095035523994373 -2.3889096286902505" fill="#ff2603" stroke="none" /><path d="M 113.31354834802062 116.24036423190432 l 9.64206295164009 11.76174902349504 a36.2088171155773,36.2088171155773 0 0,0 -0.48407607197837493,0.38993741763859124 l -9.438736109306463 -11.925534734927036" fill="#ffc512" stroke="none" /><path d="M 110.96478420261333 117.91015095944535 l 2.3318988222260812 3.808981477106301 a25.466104791654388,25.466104791654388 0 0,0 -0.37479708615124463,0.22505488143886143 l -2.2661689795174027 -3.8484503590810855" fill="#ff3505" stroke="none" /><line stroke="#e1ed5e" stroke-width="0.3" x1="143.1302829299769" x2="145.6673583964461" y1="173.24464959558577" y2="177.55315839532614" /><path d="M 143.63769802327073 174.10635135553383 a86.0,86.0 0 0,1 -40.685524379131806,11.842963189579606" fill="none" id="id30" stroke="none" /><text fill="#e1ed5e" style="font-size:6.75px; font-family:Arial;" text-anchor="middle"><textPath startOffset="21.407464694133747" xlink:href="#id30">June</textPath></text><path d="M 107.74402155503746 119.51999308798841 l 0.48170214823990903 1.2142040846975275 a22.3062651028467,22.3062651028467 0 0,0 -0.35714214513093867,0.13815025402375067 l -0.4607877406154421 -1.2222942268593187" fill="#ff0801" stroke="none" /><path d="M 107.407793817531 119.65005319985036 l 1.3629781776135002 3.615461547668584 a24.863841574821713,24.863841574821713 0 0,0 -0.40067589145108445,0.1471337372802256 l -1.3007131345082876 -3.6383261339575315" fill="#ff2d04" stroke="none" /><path d="M 103.58742460773223 120.69131181640829 l 0.5788678665084757 3.3387560258715516 a24.388566039959922,24.388566039959922 0 0,0 -0.41312198136617023,0.06797906482244993 l -0.5214683820892325 -3.3482010891896725" fill="#ff2603" stroke="none" /><path d="M 102.15924093988457 120.88869738790638 l 0.39713133005267737 3.8418853697589816 a24.86235633877527,24.86235633877527 0 0,0 -0.4249100259649418,0.04023942123616856 l -0.33112174070272027 -3.848136546500334" fill="#ff2d04" stroke="none" /><path d="M 100.72087961077811 120.9876233191556 l 0.13284034838562164 3.8675018017134413 a24.869782519007487,24.869782519007487 0 0,0 -0.4267970715145932,0.01099277860877785 l -0.06642996280028465 -3.8692122976722643" fill="#ff2d04" stroke="none" /><line stroke="#e1ed5e" stroke-width="0.3" x1="101.45913802915013" x2="101.54496967792366" y1="184.9874750549273" y2="189.98673829345242" /><path d="M 101.47630435890484 185.9873277026323 a86.0,86.0 0 0,1 -42.54439059252881,-10.42667462771756" fill="none" id="id31" stroke="none" /><text fill="#e1ed5e" style="font-size:6.75px; font-family:Arial;" text-anchor="middle"><textPath startOffset="22.145653131862474" xlink:href="#id31">July</textPath></text><path d="M 96.05791012581884 120.62667999033965 l -0.7275452485419295 3.8068241717303932 a24.875723463193257,24.875723463193257 0 0,0 -0.4187455080570861,-0.08376082926334324 l 0.7927872421299742 -3.7937739458041886" fill="#ff2d04" stroke="none" /><path d="M 91.92203290615298 119.3841803445677 l -0.8175567332795485 1.9618385387924582 a23.12537278246007,23.12537278246007 0 0,0 -0.3651220232510538,-0.15584888022831175 l 0.8511138317010334 -1.9475150089047426" fill="#ff1402" stroke="none" /><line stroke="#e1ed5e" stroke-width="0.3" x1="58.13341422392154" x2="55.670673884152215" y1="173.97424548756322" y2="178.32567169271397" /><path d="M 57.64086615596767 174.84453072859336 a86.0,86.0 0 0,1 -31.369924170532244,-30.572349798747886" fill="none" id="id32" stroke="none" /><text fill="#e1ed5e" style="font-size:6.75px; font-family:Arial;" text-anchor="middle"><textPath startOffset="22.145653131862474" xlink:href="#id32">August</textPath></text><path d="M 88.1277618465304 117.32195027204791 l -1.9358598500258715 2.8244773750602783 a24.424211705074555,24.424211705074555 0 0,0 -0.3438055654395817,-0.2400029859626305 l 1.9840605066392185 -2.790829573292521" fill="#ff2703" stroke="none" /><path d="M 86.13680546590413 115.77377054828092 l -2.49728695550248 2.8414541347183233 a24.782896210290563,24.782896210290563 0 0,0 -0.31714433087198174,-0.2835924162747174 l 2.5456963131978325 -2.7981661885602263" fill="#ff2c04" stroke="none" /><path d="M 84.1078160697243 113.72728997021213 l -2.9268519093137 2.528144969583241 a24.86755466493782,24.86755466493782 0 0,0 -0.27627312836257184,-0.3254490505322094 l 2.9698196011833864 -2.477529136601475" fill="#ff2d04" stroke="none" /><path d="M 83.64595745247003 113.17365903436017 l -3.284302739226357 2.6456018031283577 a25.217327753875168,25.217327753875168 0 0,0 -0.2686648927645763,-0.33944931541844076 l 3.3292340626324948 -2.5888325437952338" fill="#ff3204" stroke="none" /><path d="M 82.37810715431573 111.42229804090323 l -8.226319589410434 5.332200970282198 a30.80330052454765,30.80330052454765 0 0,0 -0.28380446147766264,-0.44618775211098166 l 8.316641742513985 -5.190199543492542" fill="#ff7f0b" stroke="none" /><line stroke="#e1ed5e" stroke-width="0.3" x1="26.387840678322732" x2="22.057713659400548" y1="142.50000000000003" y2="145.00000000000006" /><path d="M 25.521815274538298 143.00000000000003 a86.0,86.0 0 0,1 -11.493303480769221,-40.785679425670985" fill="none" id="id33" stroke="none" /><text fill="#e1ed5e" style="font-size:6.75px; font-family:Arial;" text-anchor="middle"><textPath startOffset="21.40746469413373" xlink:href="#id33">September</textPath></text><path d="M 80.9802524753101 108.90220220490707 l -2.5558451320971853 1.1962645740076692 a23.82194848824188,23.82194848824188 0 0,0 -0.1701743976504235,-0.3718617704552297 l 2.576003994602665 -1.1522138213377506" fill="#ff1e03" stroke="none" /><path d="M 79.94057633289273 106.21446072829308 l -2.8622540636569034 0.8867336254610451 a23.996463723698945,23.996463723698945 0 0,0 -0.11852388211054565,-0.3945274557425033 l 2.8770542657710787 -0.8374685661278183" fill="#ff2003" stroke="none" /><path d="M 79.22317932658666 103.0534771498775 l -9.02169792121798 1.3258789151887473 a30.118606707137385,30.118606707137385 0 0,0 -0.07078659022448494,-0.5121765045639094 l 9.043129027997677 -1.170814102424753" fill="#ff750a" stroke="none" /><path d="M 79.06263194458094 101.62068470465958 l -8.775258543979255 0.6792605099177915 a29.801508811221783,29.801508811221783 0 0,0 -0.035103394252095584,-0.5103956482894377 l 8.785625899396416 -0.5285214374740105" fill="#ff710a" stroke="none" /><path d="M 79.03789590574601 101.26102812881392 l -6.678914052781111 0.40178688420864284 a27.690988389226145,27.690988389226145 0 0,0 -0.024471463375263725,-0.4747398518761364 l 6.684827105612947 -0.28707523895577586" fill="#ff5407" stroke="none" /><line stroke="#e1ed5e" stroke-width="0.3" x1="15.003131293944662" x2="10.003315487706104" y1="100.72959589197737" y2="100.7725132973878" /><path d="M 14.003168132696942 100.73817937305945 a86.0,86.0 0 0,1 10.791469493833604,-42.453326145846276" fill="none" id="id34" stroke="none" /><text fill="#e1ed5e" style="font-size:6.75px; font-family:Arial;" text-anchor="middle"><textPath startOffset="22.145653131862435" xlink:href="#id34">October</textPath></text><path d="M 79.22317932658666 96.9465228501225 l -8.87181386095831 -1.3038511198716571 a29.967112630400187,29.967112630400187 0 0,0 0.07916812826947997,-0.5083161748733258 l 8.848124240550563 1.4559554766764333" fill="#ff730a" stroke="none" /><path d="M 79.2786578344484 96.59031103205396 l -14.66993352346354 -2.4139319787215068 a35.86721282489538,35.86721282489538 0 0,0 0.10518518323171695,-0.6066801850058433 l 14.62633352273959 2.665405196647943" fill="#ffc111" stroke="none" /><path d="M 79.94057633289273 93.78553927170692 l -7.795120174851476 -2.414948156181267 a29.160629457181585,29.160629457181585 0 0,0 0.1522397094596281,-0.4768887215546257 l 7.752515749614591 2.548405911427284" fill="#ff6809" stroke="none" /><path d="M 80.28708602549916 92.7611449362534 l -4.186801249396544 -1.537451412018462 a25.460163847468614,25.460163847468614 0 0,0 0.15417864887880967,-0.4089771836764497 l 4.159791916703299 1.6090968758890565" fill="#ff3505" stroke="none" /><path d="M 80.5471966667186 92.08871423366112 l -23.715520536861305 -9.644895743308753 a46.60175635056286,46.60175635056286 0 0,0 0.30773615262052867,-0.7384547388764976 l 23.546458539704297 10.050582991626515" fill="#bcff1f" stroke="none" /><line stroke="#e1ed5e" stroke-width="0.3" x1="26.387840678322718" x2="22.05771365940052" y1="57.5" y2="55.0" /><path d="M 25.521815274538284 57.0 a86.0,86.0 0 0,1 29.574782752854787,-30.346332500585742" fill="none" id="id35" stroke="none" /><text fill="#e1ed5e" style="font-size:6.75px; font-family:Arial;" text-anchor="middle"><textPath startOffset="21.40746469413373" xlink:href="#id35">November</textPath></text><path d="M 81.81346652052679 89.5 l -24.87418714158963 -14.3611186420699 a49.7222372841398,49.7222372841398 0 0,0 0.43311925668735474,-0.7355311867689421 l 24.623994174772495 14.786000997132415" fill="#99ff23" stroke="none" /><path d="M 84.58840730492382 85.73525988315684 l -5.9017670994865306 -5.462587519017902 a29.04181057346614,29.04181057346614 0 0,0 0.3417863838556391,-0.3629652954133357 l 5.8071248818946195 5.5630942743757466" fill="#ff6709" stroke="none" /><path d="M 85.60350026404147 84.71141617570332 l -2.0129814329927513 -2.1377165241210254 a23.936311663818,23.936311663818 0 0,0 0.3015635928950865,-0.2791227595006618 l 1.9759880687837117 2.1719570297540525" fill="#ff2003" stroke="none" /><path d="M 85.86807049272753 84.46653392183569 l -2.499220114311417 -2.747080704552357 a24.71383273413096,24.71383273413096 0 0,0 0.3162605322332316,-0.2828021180821715 l 2.4516945552547935 2.789578352517929" fill="#ff2b04" stroke="none" /><path d="M 86.40962598614128 83.9905735841838 l -1.3893948703034915 -1.6367036636338057 a23.146908705133495,23.146908705133495 0 0,0 0.3051265911615278,-0.2545474545502181 l 1.3610939449800548 1.6603133020959056" fill="#ff1402" stroke="none" /><path d="M 87.54013794807813 83.09580414077388 l -2.8380021739763825 -3.850295003098087 a25.78320268756999,25.78320268756999 0 0,0 0.35853260943558973,-0.2595499599849449 l 2.771488554166825 3.8984457344561116" fill="#ff3a05" stroke="none" /><path d="M 88.12776184653039 82.6780497279521 l -2.55175800660535 -3.723091191849138 a25.513632345140568,25.513632345140568 0 0,0 0.3633915304076314,-0.24450603930698156 l 2.4874701881007293 3.766346905213229" fill="#ff3605" stroke="none" /><path d="M 88.72937992617638 82.28071324371311 l -5.312808354478771 -8.352617167253053 a30.89909824954323,30.89909824954323 0 0,0 0.45000250632198824,-0.28083484598638847 l 5.168641719367085 8.442587810080976" fill="#ff800b" stroke="none" /><line stroke="#e1ed5e" stroke-width="0.3" x1="56.869717070023135" x2="54.33264160355391" y1="26.7553504044142" y2="22.446841604673864" /><path d="M 56.362301976729285 25.89364864446614 a86.0,86.0 0 0,1 42.16139366436587,-11.88097634709845" fill="none" id="id36" stroke="none" /><text fill="#e1ed5e" style="font-size:6.75px; font-family:Arial;" text-anchor="middle"><textPath startOffset="22.145653131862474" xlink:href="#id36">December</textPath></text><path d="M 89.97174638481275 81.54914285379989 l -4.354816563723682 -8.01237198403975 a30.119349325160606,30.119349325160606 0 0,0 0.45639589602369407,-0.2430051080315392 l 4.2166318519134265 8.085947559793864" fill="#ff750a" stroke="none" /><path d="M 90.6110303473126 81.2157712731953 l -4.671520115989099 -9.34616955924355 a31.44863558672718,31.44863558672718 0 0,0 0.4849675385454408,-0.23722192513584522 l 4.510392328181606 9.42498523447661" fill="#ff870c" stroke="none" /><path d="M 90.93487009805054 81.0573650232925 l -6.919140583615617 -14.458342665312228 a37.02866741321388,37.02866741321388 0 0,0 0.575727515272003,-0.2694695473337325 l 6.66992435447209 14.574988444216505" fill="#ffcf13" stroke="none" /><path d="M 91.92203290615298 80.6158196554323 l -2.627779311473995 -6.305713738068422 a27.831343195615016,27.831343195615016 0 0,0 0.4425787094882578,-0.1799929082133214 l 2.5191461407952964 6.349893902861035" fill="#ff5608" stroke="none" /><path d="M 92.592206182469 80.34994680014964 l -1.9248825003082843 -5.105979521865993 a26.456757234631933,26.456757234631933 0 0,0 0.42634541239297974,-0.1565599409300031 l 1.8369479362611765 5.1382703118047175" fill="#ff4306" stroke="none" /><path d="M 93.27111125876988 80.10723608172694 l -10.13176237565289 -29.952755167424364 a52.619932810750285,52.619932810750285 0 0,0 0.8581490730564024,-0.2820906453200682 l 9.616090564948726 30.12226673414646" fill="#7aff26" stroke="none" /><path d="M 94.30408787586887 79.78721728523814 l -4.27420010399231 -15.167628309326812 a36.75835445276124,36.75835445276124 0 0,0 0.608820921414572,-0.16593684943792034 l 4.013197781643062 15.23876565290887" fill="#ffcc13" stroke="none" /><path d="M 95.70440661134978 79.44403061299748 l -1.5304333137496622 -7.323677429388236 a28.481876583957092,28.481876583957092 0 0,0 0.47944968910008623,-0.09590336559168529 l 1.4044871391185993 7.348870191642787" fill="#ff5f08" stroke="none" /><path d="M 97.12497278360702 79.19773525538626 l -1.4140111460692035 -10.231080264092222 a31.328331466965288,31.328331466965288 0 0,0 0.5333606334569808,-0.06905421225289383 l 1.2381726907214283 10.253846072545512" fill="#ff860c" stroke="none" /><path d="M 97.48249496171623 79.15144685158666 l -0.930944192326285 -7.709553377955737 a28.765556668827724,28.765556668827724 0 0,0 0.49074601070993756,-0.054989114098272465 l 0.7984622800155485 7.72439825256098" fill="#ff6309" stroke="none" /><path d="M 99.27912038922189 79.0123766808444 l -0.6285635137486629 -18.299940879840392 a39.3107325985737,39.3107325985737 0 0,0 0.6746221258405308,-0.017375872912226527 l 0.3143280738373882 18.308034470102662" fill="#ffec16" stroke="none" /></svg>