<?xml version="1.0" encoding="utf-8" ?>
<svg baseProfile="full" height="200mm" version="1.1" viewBox="0,0,200,200" width="200mm" xmlns="http://www.w3.org/2000/svg" xmlns:ev="http://www.w3.org/2001/xml-events" xmlns:xlink="http://www.w3.org/1999/xlink"><defs /><rect fill="#1a1a1a" height="200" width="200" x="0" y="0" /><text alignment-baseline="middle" fill="#e1ed5e" style="dominant-baseline: central; font-size:9.0px; font-family:Arial;" text-anchor="middle" x="100.0" y="100.0">2023</text><line stroke="#e1ed5e" stroke-width="0.3" x1="100.0" x2="100.0" y1="15.0" y2="10.0" /><path d="M 100.0 14.0 a86.0,86.0 0 0,1 42.46469731375804,11.215312516191453" fill="none" id="id61" stroke="none" /><text fill="#e1ed5e" style="font-size:6.75px; font-family:Arial;" text-anchor="middle"><textPath startOffset="22.20632615414155" xlink:href="#id61">January</textPath></text><line stroke="#e1ed5e" stroke-width="0.3" x1="143.23703022742887" x2="145.7803849466894" y1="26.81831364943548" y2="22.513508569990506" /><path d="M 143.74570117128098 25.957352633546492 a86.0,86.0 0 0,1 28.547481713284135,27.462654790039103" fill="none" id="id62" stroke="none" /><text fill="#e1ed5e" style="font-size:6.75px; font-family:Arial;" text-anchor="middle"><textPath startOffset="19.985693538727396" xlink:href="#id62">February</textPath></text><path d="M 113.6212207817346 84.01681056812373 l 9.650832104605648 -11.324321085081328 a35.87880399593007,35.87880399593007 0 0,0 0.4666058984964648,0.40463603716525426 l -9.844331801748877 11.1565200544964" fill="#ffbf11" stroke="none" /><path d="M 114.42810811169701 84.74124197986012 l 2.6099314518488073 -2.7601894970988847 a24.798735084636018,24.798735084636018 0 0,0 0.30764219175068086,0.2959515447195659 l -2.6570568872119065 2.7148548656170166" fill="#ff2904" stroke="none" /><path d="M 114.94478906791727 85.2469230424477 l 4.943350819246336 -4.879937397114699 a27.94625844047729,27.94625844047729 0 0,0 0.3350034259646073,0.34525047808903014 l -5.026618508914052 4.794122723475555" fill="#ff5507" stroke="none" /><path d="M 115.68641384162765 86.03803664274999 l 47.05924152488298 -41.88589007175005 a84.0,84.0 0 0,0 0.9520325456886072,1.0883377751882088 l -47.773265934149435 41.069636740358895" fill="#4dd2ff" stroke="none" /><path d="M 116.60985879189232 87.15038557335679 l 6.104826002181494 -4.722777071895921 a28.71838867819813,28.71838867819813 0 0,0 0.29911440771034997,0.3935994987500595 l -6.185216350115958 4.616992797264831" fill="#ff6008" stroke="none" /><path d="M 117.65298651832404 88.62581576622439 l 5.544010958869641 -3.572120897209013 a27.59515770974008,27.59515770974008 0 0,0 0.2538391879410685,0.40151263570993045 l -5.604677743056665 3.4761606137848764" fill="#ff5107" stroke="none" /><line stroke="#e1ed5e" stroke-width="0.3" x1="172.23445277983987" x2="176.4835382374775" y1="55.19839476539836" y2="52.563006222186495" /><path d="M 173.08426987136738 54.67131705675599 a86.0,86.0 0 0,1 12.851231095245387,41.99856678651699" fill="none" id="id63" stroke="none" /><text fill="#e1ed5e" style="font-size:6.75px; font-family:Arial;" text-anchor="middle"><textPath startOffset="22.20632615414155" xlink:href="#id63">March</textPath></text><path d="M 118.03404312379186 89.2402003453031 l 2.7993135340961257 -1.6701774854812905 a24.259700767736565,24.259700767736565 0 0,0 0.2108749369235754,0.3604536233175139 l -2.8276481454900284 1.6217444498098803" fill="#ff2203" stroke="none" /><path d="M 118.73160827565052 90.50648371742162 l 3.2694981792759714 -1.657040535123987 a24.66543335491629,24.66543335491629 0 0,0 0.18867880450630134,0.38036495654799135 l -3.2975369967356807 1.6005159900770456" fill="#ff2703" stroke="none" /><path d="M 118.89224826269711 90.83032412892265 l 8.317892905319155 -4.037231610104916 a30.245895384330773,30.245895384330773 0 0,0 0.2233037261552349,0.47033459683314227 l -8.386154825316147 3.893454597631234" fill="#ff750a" stroke="none" /><path d="M 119.47837535516314 92.15188598940014 l 15.870885108666473 -6.394604966318697 a38.11069743779484,38.11069743779484 0 0,0 0.23992761998968717,0.6105896227172264 l -15.97860627853786 6.120466338705687" fill="#ffdb14" stroke="none" /><path d="M 119.85752413597 93.16781622104841 l 1.6358900595317991 -0.5628446654452645 a22.73000878734622,22.73000878734622 0 0,0 0.12410877714993165,0.3710694468149734 l -1.6453361304535008 0.5346021157079771" fill="#ff0c01" stroke="none" /><path d="M 120.08093135843002 93.85539295169968 l 15.482804859697847 -4.737616506438561 a37.1914254000555,37.1914254000555 0 0,0 0.182050438530274,0.6137835766032342 l -15.562061195339824 4.470403543088797" fill="#ffd013" stroke="none" /><path d="M 120.37134235888165 94.90015583598534 l 59.70220316929206 -14.946090790084089 a82.54460734437147,82.54460734437147 0 0,0 0.33319405800726515,1.3813044794136944 l -59.950630027560145 13.916201079010989" fill="#4bdfff" stroke="none" /><path d="M 120.67395015179393 96.31383870115 l 7.097288108834909 -1.2654450920839317 a28.209219776153915,28.209219776153915 0 0,0 0.08111915572613553,0.478769848987771 l -7.1180191260812675 1.1430894547803236" fill="#ff5908" stroke="none" /><path d="M 120.83666639777658 97.38593545837742 l 31.788395899096155 -3.9880140598572345 a53.03757746739432,53.03757746739432 0 0,0 0.10584695948587156,0.9068321092261252 l -31.852333211585616 3.4402382123062565" fill="#77ff27" stroke="none" /><path d="M 120.91429891909075 98.10471618934814 l 5.984253946798851 -0.5423016888146527 a27.00877578392378,27.00877578392378 0 0,0 0.03797371649637524,0.46337552515255076 l -5.992702147114721 0.4392122464543329" fill="#ff4806" stroke="none" /><path d="M 120.96714384426684 98.82574320788733 l 7.4124894804169745 -0.4151336101613745 a28.424105078161134,28.424105078161134 0 0,0 0.0231539941466327,0.48874422132879886 l -7.418537082797104 0.2874782822095759" fill="#ff5c08" stroke="none" /><line stroke="#e1ed5e" stroke-width="0.3" x1="184.98032266829074" x2="189.97916517819016" y1="98.17113171792111" y2="98.06355123074" /><path d="M 185.9800911702706 98.14961562048488 a86.0,86.0 0 0,1 -9.607161424134198,41.387399972396054" fill="none" id="id64" stroke="none" /><text fill="#e1ed5e" style="font-size:6.75px; font-family:Arial;" text-anchor="middle"><textPath startOffset="21.466115282336823" xlink:href="#id64">April</textPath></text><path d="M 120.99980553446 99.90962569577887 l 62.41085485359353 -0.26858999117795845 a83.411432799926,83.411432799926 0 0,0 -0.00617920914729915,1.4358305888868352 l -62.40623134715672 -0.8057500759125614" fill="#4cd7ff" stroke="none" /><path d="M 120.95626037817324 101.35467743843564 l 11.419717783083257 0.7382058513721182 a32.4435528628249,32.4435528628249 0 0,0 -0.040822395990062536,0.5569891597397858 l -11.405318828428856 -0.934668147608674" fill="#ff920d" stroke="none" /><path d="M 120.76222939487914 103.15116336523771 l 6.915861930407381 1.0496469497402303 a27.99506289889927,27.99506289889927 0 0,0 -0.07641085199572806,0.4758104483172527 l -6.896769324050364 -1.168536627750688" fill="#ff5608" stroke="none" /><path d="M 120.64145759157962 103.86396538481128 l 6.724559581680087 1.2587999338918998 a27.841365276107666,27.841365276107666 0 0,0 -0.09223455468132515,0.4703020072088748 l -6.701895094023098 -1.3743656681687195" fill="#ff5407" stroke="none" /><path d="M 120.32669344350535 105.2749913415812 l 6.579711747807509 1.7075045971569174 a27.79765979095366,27.79765979095366 0 0,0 -0.12417866372315207,0.46211500331063887 l -6.54934500774258 -1.8205105336431047" fill="#ff5307" stroke="none" /><path d="M 119.9155931802556 106.66101706037122 l 6.268410387023841 2.0965475721189692 a27.609726204791414,27.609726204791414 0 0,0 -0.15462652175382974,0.4494170512870647 l -6.23139303432678 -2.204137326495334" fill="#ff5107" stroke="none" /><path d="M 119.67450827220406 107.3425965602758 l 8.001015226967457 2.9860073792667223 a29.54005179909352,29.54005179909352 0 0,0 -0.18189036565366257,0.47485834866200605 l -7.948430581720288 -3.1232892947618733" fill="#ff6b09" stroke="none" /><path d="M 119.41010516605496 108.01547362559984 l 6.109981883565886 2.523139273158768 a27.610454629543984,27.610454629543984 0 0,0 -0.18518597349549892,0.43772493829113346 l -6.065644928878076 -2.627938737116065" fill="#ff5107" stroke="none" /><path d="M 119.12269723197855 108.67885076344098 l 5.719032543270246 2.595587293580202 a27.28047821663121,27.28047821663121 0 0,0 -0.19775148806282478,0.42593911248906513 l -5.67350643836759 -2.693646473348098" fill="#ff4c07" stroke="none" /><line stroke="#e1ed5e" stroke-width="0.3" x1="174.80103733775053" x2="179.2010983576182" y1="140.37084112569926" y2="142.7455964860345" /><path d="M 175.68104954172406 140.8457921977663 a86.0,86.0 0 0,1 -30.038265399797805,32.042727171017184" fill="none" id="id65" stroke="none" /><text fill="#e1ed5e" style="font-size:6.75px; font-family:Arial;" text-anchor="middle"><textPath startOffset="22.206326154141568" xlink:href="#id65">May</textPath></text><path d="M 117.75023020441432 111.22182372390056 l 9.920779505262976 6.271988449144723 a32.737108038109334,32.737108038109334 0 0,0 -0.30522697814104194,0.47371904827710143 l -9.811347663744884 -6.4418290973432795" fill="#ff960d" stroke="none" /><path d="M 116.93607887273984 112.41649034213513 l 5.440466646486575 3.9886151972012356 a27.74594163352141,27.74594163352141 0 0,0 -0.28570225110403064,0.3827448541484491 l -5.371003128687454 -4.081672930859" fill="#ff5307" stroke="none" /><path d="M 116.498646956653 112.99209946851258 l 4.828383742482703 3.802180992132107 a27.145719637406344,27.145719637406344 0 0,0 -0.2922457606856371,0.36462152129526565 l -4.762220069742212 -3.8847303470056254" fill="#ff4a06" stroke="none" /><path d="M 115.32070863581623 114.36230785411682 l 4.045228267592032 3.7921753556171005 a26.54476921653871,26.54476921653871 0 0,0 -0.31536885784208607,0.33066298661934596 l -3.979352858370984 -3.8612454588189538" fill="#ff4206" stroke="none" /><path d="M 113.48314897796784 116.09983520530334 l 7.721070199701843 9.219504881753057 a33.025564240125796,33.025564240125796 0 0,0 -0.43897245243263616,0.36124444325965316 l -7.561227618724516 -9.351044443869888" fill="#ff9a0e" stroke="none" /><path d="M 112.92097659922987 116.55440617244103 l 4.898700660077096 6.276234603579013 a28.961682545555455,28.961682545555455 0 0,0 -0.3956321284195849,0.3033538454527193 l -4.7899398031640175 -6.359627790859103" fill="#ff6309" stroke="none" /><path d="M 112.34349029814194 116.9893568818739 l 3.571688421530156 4.916007368950329 a27.076519285912497,27.076519285912497 0 0,0 -0.3794228420388896,0.2707081234934758 l -3.486538251642382 -4.976759754288024" fill="#ff4906" stroke="none" /><path d="M 111.45004920935366 117.60387380957326 l 4.148405466366401 6.377964409201025 a28.60839654056054,28.60839654056054 0 0,0 -0.41511900191268747,0.26494858769647084 l -4.038004662406784 -6.448427425721305" fill="#ff5f08" stroke="none" /><line stroke="#e1ed5e" stroke-width="0.3" x1="143.8653032363475" x2="146.44561519142675" y1="172.8068346515853" y2="177.08958963109032" /><path d="M 144.38136562736335 173.6633856474863 a86.0,86.0 0 0,1 -40.68145358897372,12.25698825130547" fill="none" id="id66" stroke="none" /><text fill="#e1ed5e" style="font-size:6.75px; font-family:Arial;" text-anchor="middle"><textPath startOffset="21.466115282336833" xlink:href="#id66">June</textPath></text><path d="M 110.8373102113329 117.98757091392108 l 3.3632902065302304 5.58232807904629 a27.517216261215427,27.517216261215427 0 0,0 -0.4078210381119286,0.24094785774352118 l -3.2667012973899197 -5.63939450908356" fill="#ff4f07" stroke="none" /><path d="M 103.41894727170886 120.7198165907248 l 0.1527473436532584 0.9256934060974988 a21.938211081306076,21.938211081306076 0 0,0 -0.3731210578489878,0.05827383561389209 l -0.13679042219575344 -0.9281855490584967" fill="#ff0000" stroke="none" /><path d="M 102.34483914955558 120.86867818915974 l 0.8027782723423015 7.1445930207776795 a28.189552307834614,28.189552307834614 0 0,0 -0.48266876791326824,0.050030591307734726 l -0.6796769078234306 -7.157352980541172" fill="#ff5908" stroke="none" /><path d="M 100.90346689309514 120.98055641714683 l 0.43742221674065757 10.157938898015983 a31.167352696327814,31.167352696327814 0 0,0 -0.5361966772076853,0.018467697720258875 l -0.26250518785832005 -10.163963394162336" fill="#ff810b" stroke="none" /><line stroke="#e1ed5e" stroke-width="0.3" x1="102.19456741930631" x2="102.32365962044197" y1="184.97166512339345" y2="189.96999836594603" /><path d="M 102.22038585953345 185.97133177190398 a86.0,86.0 0 0,1 -42.740103519485714,-10.115201625700543" fill="none" id="id67" stroke="none" /><text fill="#e1ed5e" style="font-size:6.75px; font-family:Arial;" text-anchor="middle"><textPath startOffset="22.20632615414155" xlink:href="#id67">July</textPath></text><path d="M 99.45781275523022 120.99299961872073 l -0.0969490072653391 3.753777854771946 a24.755029599482008,24.755029599482008 0 0,0 -0.42588039942784095,-0.01466818206068426 l 0.16154975836782318 -3.7515528742851676" fill="#ff2903" stroke="none" /><path d="M 98.73552117531835 120.96189622390904 l -0.4118094424059753 6.826770545495857 a27.839180001849968,27.839180001849968 0 0,0 -0.47808785800217113,-0.03297173780738744 l 0.5292600611870765 -6.818670463172185" fill="#ff5407" stroke="none" /><path d="M 98.01472825383883 120.90594882070398 l -0.8240824271451808 8.678018553002653 a29.717059013967255,29.717059013967255 0 0,0 -0.5088231307700259,-0.052741597956570845 l 0.9733381545208003 -8.662547586590323" fill="#ff6e0a" stroke="none" /><path d="M 96.93821686468263 120.77559828337769 l -0.5124330645143701 3.47709260419818 a24.514649431134956,24.514649431134956 0 0,0 -0.4169406472862504,-0.06511755428861993 l 0.5722095754091382 -3.4677567425624543" fill="#ff2503" stroke="none" /><path d="M 96.22490169976321 120.6578951692458 l -1.3012146821334651 7.120438822615701 a28.23835676625659,28.23835676625659 0 0,0 -0.4774062458714092,-0.09149604325769477 l 1.4235885425765693 -7.0969855810095375" fill="#ff5908" stroke="none" /><path d="M 95.51606077576429 120.51570834832081 l -2.0192968833220424 9.239042693307132 a30.457138562575153,30.457138562575153 0 0,0 -0.5112156024027329,-0.1163510067317513 l 2.178032635117637 -9.202914952997695" fill="#ff780b" stroke="none" /><path d="M 95.16358092515715 120.4354850818985 l -1.8807612934070583 7.946844299318894 a29.166369901026734,29.166369901026734 0 0,0 -0.4875599214152346,-0.11983036640991131 l 2.0172744995655036 -7.913292674594953" fill="#ff6609" stroke="none" /><path d="M 94.11515582081647 120.15858648285463 l -1.7422236056793365 5.968002577160911 a27.217105263157894,27.217105263157894 0 0,0 -0.4485962502320498,-0.13515837030376354 l 1.8446948303516322 -5.9371288377514215" fill="#ff4b07" stroke="none" /><path d="M 93.42475214034765 119.94407469862007 l -2.0757098361863857 6.296053458241879 a27.62939367311072,27.62939367311072 0 0,0 -0.45039893880469123,-0.1527997740481417 l 2.1837785079283027 -6.259390697295614" fill="#ff5107" stroke="none" /><path d="M 92.7421414339146 119.70592522655815 l -0.4226925538499231 1.1476591592610925 a22.223025159559707,22.223025159559707 0 0,0 -0.35782221863050484,-0.13529774545590595 l 0.44238499324071084 -1.1402131636985533" fill="#ff0400" stroke="none" /><path d="M 92.06813273071674 119.44442032107085 l -1.0749400640929276 2.6351407199064787 a23.845955508278607,23.845955508278607 0 0,0 -0.3787288922649829,-0.1583087076825855 l 1.1201404158553716 -2.61624696920392" fill="#ff1c02" stroke="none" /><path d="M 91.40352486487194 119.15986991738527 l -3.8540412931804435 8.589907918400401 a30.41488992692628,30.41488992692628 0 0,0 -0.4758221307717341,-0.218426602635543 l 4.001331419719597 -8.522294245430784" fill="#ff770b" stroke="none" /><path d="M 90.7491055286396 118.85261126421891 l -3.9770460437762694 8.104913884309816 a30.02809638331329,30.02809638331329 0 0,0 -0.4620696193330075,-0.23169129954151568 l 4.1159695707920365 -8.035254743858998" fill="#ff720a" stroke="none" /><line stroke="#e1ed5e" stroke-width="0.3" x1="58.666819895761336" x2="56.23545636021788" y1="174.27360380694188" y2="178.64263932499728" /><path d="M 58.180547188652646 175.14741091055294 a86.0,86.0 0 0,1 -31.652253787137756,-30.449443065178592" fill="none" id="id68" stroke="none" /><text fill="#e1ed5e" style="font-size:6.75px; font-family:Arial;" text-anchor="middle"><textPath startOffset="22.20632615414155" xlink:href="#id68">August</textPath></text><path d="M 89.4739219176387 118.17145234162733 l -3.4368457932638097 5.933119538840233 a27.85666219591157,27.85666219591157 0 0,0 -0.41285182291794015,-0.24392013408166452 l 3.5384654872101318 -5.87308083246482" fill="#ff5407" stroke="none" /><path d="M 88.8546689885994 117.79835938074946 l -3.7140364568446085 5.931071544174682 a27.997976597909535,27.997976597909535 0 0,0 -0.4062615702498763,-0.25929535573439044 l 3.815579829141408 -5.866261759616488" fill="#ff5608" stroke="none" /><path d="M 87.95078237400918 117.19931262002967 l -5.093973652723248 7.271247648676869 a29.878040884284523,29.878040884284523 0 0,0 -0.4186805204599339,-0.2987174346908868 l 5.218381501032069 -7.182485952141766" fill="#ff700a" stroke="none" /><path d="M 87.36589467227662 116.77436683061367 l -5.630918255338923 7.47619922092851 a30.3595296457312,30.3595296457312 0 0,0 -0.41472747008621874,-0.3179953391755526 l 5.758774453918628 -7.378164539925591" fill="#ff760a" stroke="none" /><path d="M 86.79598089348748 116.32954008644616 l -4.20678876237111 5.202576971163906 a27.690581352326333,27.690581352326333 0 0,0 -0.3680604006379851,-0.3028886523005566 l 4.295719291553784 -5.129393200006169" fill="#ff5207" stroke="none" /><path d="M 86.24171649860922 115.8653595955263 l -3.142096195072966 3.6233070799513847 a25.79594857090001,25.79594857090001 0 0,0 -0.3329613868652775,-0.29379971115197523 l 3.203999934844831 -3.568684227027121" fill="#ff3705" stroke="none" /><path d="M 85.70375840098266 115.38237550388516 l -4.169461637378749 4.486229762626021 a27.124595319581907,27.124595319581907 0 0,0 -0.33926948557641584,-0.32080047474607853 l 4.246066957345982 -4.4137946511340145" fill="#ff4a06" stroke="none" /><path d="M 85.18274418774928 114.88116024355367 l -4.661658619130311 4.68176359988779 a27.60681250578115,27.60681250578115 0 0,0 -0.3338575641989145,-0.3381959499050287 l 4.741556808384761 -4.600827156002095" fill="#ff5107" stroke="none" /><path d="M 84.4343377721795 114.09645910891817 l -6.143260504167344 5.563413828783333 a29.288016834705395,29.288016834705395 0 0,0 -0.33519598369390463,-0.376596241068324 l 6.238115337509584 -5.456843417974143" fill="#ff6809" stroke="none" /><path d="M 83.95833913139862 113.55231037782056 l -5.273338037128921 4.455019613724638 a27.90328138007585,27.90328138007585 0 0,0 -0.3068085374645549,-0.3695706478788204 l 5.349242574487015 -4.363587708732054" fill="#ff5507" stroke="none" /><path d="M 83.50135304334701 112.99209946851258 l -5.584374606986631 4.397496991966949 a28.10796873554713,28.10796873554713 0 0,0 -0.29606147934050925,-0.38269937153664835 l 5.659242903545208 -4.300719626317047" fill="#ff5808" stroke="none" /><path d="M 82.85270091963577 112.12312394758628 l -7.30754728406328 5.166428897189614 a29.949426510036076,29.949426510036076 0 0,0 -0.29398798151396077,-0.42351161403062565 l 7.395396172739375 -5.039876020971976" fill="#ff710a" stroke="none" /><path d="M 82.05923443525364 110.91462005526583 l -6.417254688638811 3.904063986098692 a28.51151604846915,28.51151604846915 0 0,0 -0.25147038261967924,-0.42147882581996676 l 6.483505946956722 -3.793023066392614" fill="#ff5d08" stroke="none" /><line stroke="#e1ed5e" stroke-width="0.3" x1="26.63291911575756" x2="22.317208475507996" y1="142.92168965132927" y2="145.44649492493687" /><path d="M 25.769776987707644 143.4266507060508 a86.0,86.0 0 0,1 -11.730757126820373,-40.83630448921669" fill="none" id="id69" stroke="none" /><text fill="#e1ed5e" style="font-size:6.75px; font-family:Arial;" text-anchor="middle"><textPath startOffset="21.46611528233685" xlink:href="#id69">September</textPath></text><path d="M 81.69416730710424 110.29060199501025 l -7.8076213622183275 4.389045028118792 a29.956710757561744,29.956710757561744 0 0,0 -0.24881700244553803,-0.4516751332225325 l 7.882014774115382 -4.253999376498438" fill="#ff710a" stroke="none" /><path d="M 81.51974371655577 109.97397251340807 l -7.630733886716778 4.118380658574935 a29.671168254555546,29.671168254555546 0 0,0 -0.23870806926878782,-0.45154570757186413 l 7.700494464210452 -3.9864199359169454" fill="#ff6d0a" stroke="none" /><path d="M 81.18737489456691 109.33194174019688 l -7.43778215307533 3.6894877423953867 a29.30258532975673,29.30258532975673 0 0,0 -0.2202532222414958,-0.453786874666977 l 7.500188631931544 -3.560911911763125" fill="#ff6809" stroke="none" /><path d="M 80.58989483394504 108.01547362559985 l -7.263304083736501 2.999407876455849 a28.858246230690963,28.858246230690963 0 0,0 -0.1856511248991877,-0.4607708668618409 l 7.313857822893077 -2.8739376417512026" fill="#ff6209" stroke="none" /><path d="M 80.32549172779594 107.34259656027581 l -7.361561860567888 2.7473611054375815 a28.857517805938397,28.857517805938397 0 0,0 -0.16967634936395898,-0.4668764403572748 l 7.4077624709370715 -2.620236868074189" fill="#ff6209" stroke="none" /><path d="M 80.0844068197444 106.66101706037122 l -4.6636586425829805 1.5598184548573029 a25.91759550457867,25.91759550457867 0 0,0 -0.1378664882327552,-0.4243094211621169 l 4.689817381831985 -1.4793101337173815" fill="#ff3905" stroke="none" /><path d="M 79.76711848015287 105.62410040840567 l -5.433457892192782 1.5103292489782416 a26.6394644343724,26.6394644343724 0 0,0 -0.11900473351492422,-0.4428608842565318 l 5.4586507020494786 -1.416577431546171" fill="#ff4306" stroke="none" /><path d="M 79.50377843672027 104.57218783832718 l -4.885650075716574 1.0898647728581203 a26.005734899639258,26.005734899639258 0 0,0 -0.09370232999326494,-0.43774609061663045 l 4.90368644443428 -1.0056048628253256" fill="#ff3a05" stroke="none" /><path d="M 79.23777060512086 103.15116336523772 l -6.110703788348077 0.9274450034932734 a27.18068402552955,27.18068402552955 0 0,0 -0.06622502343734225,-0.4631776596764647 l 6.125762862802018 -0.8221218718364087" fill="#ff4b07" stroke="none" /><path d="M 79.07016306316243 101.71520430193888 l -5.625704366740623 0.46102759235007335 a26.644563407640366,26.644563407640366 0 0,0 -0.03352576467219916,-0.45743242260808364 l 5.632806690077157 -0.3641220332452288" fill="#ff4306" stroke="none" /><line stroke="#e1ed5e" stroke-width="0.3" x1="15.007084014347285" x2="10.007500721073583" y1="101.09737516637583" y2="101.16192664675087" /><path d="M 14.007167355692545 101.11028546245083 a86.0,86.0 0 0,1 10.666146001902534,-42.60595125391555" fill="none" id="id70" stroke="none" /><text fill="#e1ed5e" style="font-size:6.75px; font-family:Arial;" text-anchor="middle"><textPath startOffset="22.20632615414155" xlink:href="#id70">October</textPath></text><path d="M 79.21141760316559 97.0276538004421 l -11.947762293028495 -1.7082879999702234 a33.06926972527981,33.06926972527981 0 0,0 0.08541966623154928,-0.562808873921921 l 11.916586733357642 1.913695986284236" fill="#ff9b0e" stroke="none" /><path d="M 79.32604984820605 96.31383870115002 l -6.633314641479532 -1.1827187129207173 a27.737928961243178,27.737928961243178 0 0,0 0.08785563167127496,-0.4693282974150251 l 6.6119732858983955 1.2967250877983145" fill="#ff5307" stroke="none" /><path d="M 79.62865764111835 94.90015583598534 l -6.885291367991263 -1.7236916636120192 a28.097770789011193,28.097770789011193 0 0,0 0.12149431685283546,-0.46816716348493986 l 6.85460071926812 1.841955252645823" fill="#ff5708" stroke="none" /><path d="M 79.81627453868168 94.20196356495316 l -6.438918337841478 -1.8496626500714264 a27.699322449357137,27.699322449357137 0 0,0 0.1355870000854868,-0.45713196037995507 l 6.406125440644284 1.9602239971979207" fill="#ff5207" stroke="none" /><path d="M 80.02781315780177 93.51064311812611 l -6.441404354087009 -2.0929391460432694 a27.772893349366385,27.772893349366385 0 0,0 0.15164357672506162,-0.4533949928491692 l 6.4044234835901745 2.2035072418147608" fill="#ff5307" stroke="none" /><path d="M 80.38941819471856 92.48833698450439 l -6.863522237141212 -2.629012573756502 a28.349805753399316,28.349805753399316 0 0,0 0.17847748477145395,-0.45420573127347674 l 6.817251202488067 2.746767309925742" fill="#ff5b08" stroke="none" /><path d="M 80.65960295795068 91.81776055985345 l -7.169462463753858 -3.0331465485447504 a28.784675330681715,28.784675330681715 0 0,0 0.19698215519910325,-0.45466197285638915 l 7.116189598712073 3.1561076659877374" fill="#ff6108" stroke="none" /><path d="M 81.43458229118936 90.18545643968196 l -6.294871823962536 -3.327762116204867 a28.120351956340762,28.120351956340762 0 0,0 0.22990650847760524,-0.42598184346170953 l 6.236657216266459 3.4356249429990493" fill="#ff5808" stroke="none" /><line stroke="#e1ed5e" stroke-width="0.3" x1="26.266209847984243" x2="21.928928074336255" y1="57.71137044288968" y2="55.22380399835378" /><path d="M 25.398753493254645 57.2138571539825 a86.0,86.0 0 0,1 29.58750427330803,-30.4925239686951" fill="none" id="id71" stroke="none" /><text fill="#e1ed5e" style="font-size:6.75px; font-family:Arial;" text-anchor="middle"><textPath startOffset="21.46611528233685" xlink:href="#id71">November</textPath></text><path d="M 81.78341655067845 89.55222093294921 l -6.56519871098132 -3.7653463315138858 a28.568333179169365,28.568333179169365 0 0,0 0.24832727801741866,-0.42447181460163186 l 6.499411758493577 3.877797558469408" fill="#ff5e08" stroke="none" /><path d="M 82.15384107792192 88.93136811851018 l -5.901811089275707 -3.6604501095455073 a27.94480159097216,27.94480159097216 0 0,0 0.25705545217893994,-0.40659999334671787 l 5.837928040850804 3.761497750606441" fill="#ff5507" stroke="none" /><path d="M 82.54541684631803 88.32363383020207 l -13.268332825811912 -8.875944568418337 a36.96342845250208,36.96342845250208 0 0,0 0.35832617609206646,-0.5257994482873364 l 13.113582184051104 9.103022039976086" fill="#ffcd13" stroke="none" /><path d="M 83.17141714833178 87.43820079747577 l -5.886929680154727 -4.394334877351432 a28.346163629636482,28.346163629636482 0 0,0 0.29523752324503816,-0.3884979732369961 l 5.810416216685579 4.495017626469455" fill="#ff5b08" stroke="none" /><path d="M 84.5562425177563 85.77008943001954 l -4.8705476954684945 -4.4877328728469505 a27.622837850337618,27.622837850337618 0 0,0 0.3252032465007028,-0.3469041492263116 l 4.792577126997333 4.570906438951314" fill="#ff5107" stroke="none" /><path d="M 85.05521093208273 85.24692304244772 l -5.167294564413541 -5.101008386581302 a28.260937933586163,28.260937933586163 0 0,0 0.34473526439420593,-0.34325486161238783 l 5.078723499852021 5.189199098843802" fill="#ff5a08" stroke="none" /><path d="M 86.10567301691215 84.25364557470405 l -5.800280683151266 -6.573422053062969 a29.7665918971418,29.7665918971418 0 0,0 0.3871162304885776,-0.33570338037301245 l 5.686270654015915 6.672290426855662" fill="#ff6e0a" stroke="none" /><path d="M 86.37877921826538 84.01681056812373 l -5.65177977260809 -6.631818702621306 a29.71341689020442,29.71341689020442 0 0,0 0.3921356924910488,-0.32840236524245353 l 5.53678654315793 6.728122225257574" fill="#ff6e0a" stroke="none" /><path d="M 86.93701828274178 83.55741782278169 l -4.897258801225381 -6.164257290192009 a28.8728147257423,28.8728147257423 0 0,0 0.39180058275000434,-0.3058065694742421 l 4.7904256633159505 6.2476422488894725" fill="#ff6209" stroke="none" /><path d="M 87.51073957382395 83.11751280151077 l -3.8569010350885207 -5.2136059405287325 a27.48516557210249,27.48516557210249 0 0,0 0.3827697810644364,-0.27809852437861493 l 3.766585937670303 5.279223699724016" fill="#ff4f07" stroke="none" /><path d="M 87.80319425747018 82.90503203632743 l -17.042077360579036 -23.88607088310489 a50.342405882897054,50.342405882897054 0 0,0 0.7097532733507699,-0.49722752532583403 l 16.628392947644606 24.175883251194666" fill="#94ff23" stroke="none" /><path d="M 88.39885842347998 82.49532879139004 l -3.5118107438589248 -5.298883046348826 a27.356962815650725,27.356962815650725 0 0,0 0.3947648479778684,-0.25676603822344546 l 3.420078870096767 5.358548008731807" fill="#ff4d07" stroke="none" /><path d="M 89.00827224532344 82.1063720568725 l -4.776917851205113 -7.776429024816545 a30.126433724909816,30.126433724909816 0 0,0 0.4442041281339084,-0.26762801696676786 l 4.642351656853558 7.857503651241932" fill="#ff730a" stroke="none" /><line stroke="#e1ed5e" stroke-width="0.3" x1="56.76296977257108" x2="54.21961505331056" y1="26.818313649435495" y2="22.513508569990535" /><path d="M 56.25429882871898 25.957352633546506 a86.0,86.0 0 0,1 42.26535254187918,-11.944610805530505" fill="none" id="id72" stroke="none" /><text fill="#e1ed5e" style="font-size:6.75px; font-family:Arial;" text-anchor="middle"><textPath startOffset="22.20632615414155" xlink:href="#id72">December</textPath></text><path d="M 89.94658935756843 81.56283822128135 l -15.249245929477736 -27.96591367894694 a52.853286004994914,52.853286004994914 0 0,0 0.8025015261880422,-0.42866852290180935 l 14.76559935676139 28.224260928350496" fill="#79ff26" stroke="none" /><path d="M 90.91171255644093 81.06846463323043 l -1.4517007103039554 -3.0239936302368133 a24.354395985570253,24.354395985570253 0 0,0 0.3794899531959968,-0.17817562143024834 l 1.39943254580835 3.0485342343070694" fill="#ff2303" stroke="none" /><path d="M 92.23578459929587 80.48803036053334 l -22.18090765431017 -55.74203887845046 a80.99306262140414,80.99306262140414 0 0,0 1.299810743888026,-0.5043063748570499 l 21.218113745422468 56.11558795719806" fill="#49eeff" stroke="none" /><path d="M 93.94186890950719 79.89281104454417 l -4.354684485302554 -14.453378852230747 a36.09514614744242,36.09514614744242 0 0,0 0.5964461336126325,-0.17411898203141463 l 4.105248133966501 14.52619616318086" fill="#ffc212" stroke="none" /><path d="M 94.63758080256005 79.69619591428918 l -7.869341491978954 -29.79579962957293 a51.81746600684488,51.81746600684488 0 0,0 0.8643427501459462,-0.22034021240633472 l 7.355289853148006 29.926842838148126" fill="#84ff25" stroke="none" /><path d="M 95.692805502759 79.44645832069477 l -2.2903509727142928 -10.929347213847551 a32.166751456849504,32.166751456849504 0 0,0 0.5429036768871138,-0.10890137021093431 l 2.1018808863600427 10.967152540135695" fill="#ff8f0d" stroke="none" /><path d="M 96.40284397218896 79.31037775812273 l -1.2492389516618747 -7.185199029426345 a28.292988622699102,28.292988622699102 0 0,0 0.480537272036265,-0.07929276728821227 l 1.1253724734867239 7.205638059654184" fill="#ff5a08" stroke="none" /><path d="M 97.11714578562143 79.19881850522333 l -2.303436782959844 -16.620405688610468 a37.77926417537693,37.77926417537693 0 0,0 0.6449195130801612,-0.0837290621117667 l 2.0170025413718258 16.65759307388637" fill="#ffd714" stroke="none" /><path d="M 98.19473922651362 79.07773832637324 l -0.6960089317813265 -8.066469516084132 a29.096441124780316,29.096441124780316 0 0,0 0.49936394457200356,-0.03876025293878931 l 0.5570547978469891 8.077255031211383" fill="#ff6509" stroke="none" /><path d="M 98.91598698831166 79.02799685794201 l -0.19620224406818562 -3.7958530337824423 a24.80092035889372,24.80092035889372 0 0,0 0.42652760727603417,-0.018367175993963744 l 0.13083380440282721 3.7986679363005984" fill="#ff2904" stroke="none" /><path d="M 99.63851952072746 79.00311137660856 l -0.5356755515961115 -31.11515155056872 a52.11976227916011,52.11976227916011 0 0,0 0.8971560308686396,-0.0077221051999536985 l 7.622143453079994e-15 31.119762279160113" fill="#80ff25" stroke="none" /></svg>